<svg width="20" height="20" viewBox="0 0 20 20" fill="none" xmlns="http://www.w3.org/2000/svg">
<path d="M4.99992 17.3884C5.92039 17.3884 6.66659 16.6618 6.66659 15.7653C6.66659 14.8689 5.92039 14.1423 4.99992 14.1423C4.07944 14.1423 3.33325 14.8689 3.33325 15.7653C3.33325 16.6618 4.07944 17.3884 4.99992 17.3884Z" stroke="white" stroke-width="1.66667" stroke-linecap="round" stroke-linejoin="round"/>
<path d="M14.1667 17.3884C15.0871 17.3884 15.8333 16.6618 15.8333 15.7653C15.8333 14.8689 15.0871 14.1423 14.1667 14.1423C13.2462 14.1423 12.5 14.8689 12.5 15.7653C12.5 16.6618 13.2462 17.3884 14.1667 17.3884Z" stroke="white" stroke-width="1.66667" stroke-linecap="round" stroke-linejoin="round"/>
<path d="M14.1666 14.1423H4.99992V2.78076H3.33325" stroke="white" stroke-width="1.66667" stroke-linecap="round" stroke-linejoin="round"/>
<path d="M5 4.40381L16.6667 5.21535L15.8333 10.8961H5" stroke="white" stroke-width="1.66667" stroke-linecap="round" stroke-linejoin="round"/>
</svg>
