<svg width="20" height="20" viewBox="0 0 20 20" fill="none" xmlns="http://www.w3.org/2000/svg">
<path d="M8.69291 1.43463C9.39428 0.66482 10.6057 0.66482 11.3071 1.43463V1.43463C11.7724 1.94531 12.4924 2.13825 13.1507 1.92863V1.92863C14.143 1.61264 15.1922 2.21836 15.4147 3.23572V3.23572C15.5623 3.91061 16.0894 4.43774 16.7643 4.58534V4.58534C17.7816 4.80784 18.3874 5.85698 18.0714 6.84929V6.84929C17.8617 7.50757 18.0547 8.22764 18.5654 8.69291V8.69291C19.3352 9.39428 19.3352 10.6057 18.5654 11.3071V11.3071C18.0547 11.7724 17.8617 12.4924 18.0714 13.1507V13.1507C18.3874 14.143 17.7816 15.1922 16.7643 15.4147V15.4147C16.0894 15.5623 15.5623 16.0894 15.4147 16.7643V16.7643C15.1922 17.7816 14.143 18.3874 13.1507 18.0714V18.0714C12.4924 17.8617 11.7724 18.0547 11.3071 18.5654V18.5654C10.6057 19.3352 9.39428 19.3352 8.69291 18.5654V18.5654C8.22764 18.0547 7.50757 17.8617 6.84929 18.0714V18.0714C5.85698 18.3874 4.80784 17.7816 4.58534 16.7643V16.7643C4.43774 16.0894 3.91061 15.5623 3.23572 15.4147V15.4147C2.21836 15.1922 1.61264 14.143 1.92863 13.1507V13.1507C2.13825 12.4924 1.94531 11.7724 1.43463 11.3071V11.3071C0.66482 10.6057 0.66482 9.39428 1.43463 8.69291V8.69291C1.94531 8.22764 2.13825 7.50757 1.92863 6.84929V6.84929C1.61264 5.85698 2.21835 4.80785 3.23572 4.58534V4.58534C3.91061 4.43774 4.43774 3.91061 4.58534 3.23572V3.23572C4.80785 2.21835 5.85698 1.61264 6.84929 1.92863V1.92863C7.50757 2.13825 8.22764 1.94531 8.69291 1.43463V1.43463Z" fill="url(#paint0_linear_901_885)"/>
<path d="M5.8125 10.75L8.625 13.5625L14.25 7.9375" stroke="white" stroke-width="2" stroke-linecap="round" stroke-linejoin="round"/>
<defs>
<linearGradient id="paint0_linear_901_885" x1="-2.26579" y1="8.54297" x2="0.765405" y2="-1.43363" gradientUnits="userSpaceOnUse">
<stop stop-color="#26BEFF"/>
<stop offset="0.510417" stop-color="#5BCEFF"/>
<stop offset="1" stop-color="#8EDDFF"/>
</linearGradient>
</defs>
</svg>
