<svg width="35" height="33" viewBox="0 0 35 33" fill="none" xmlns="http://www.w3.org/2000/svg">
<path fill-rule="evenodd" clip-rule="evenodd" d="M0 16.2528C0 7.33341 7.83504 0.102783 17.5 0.102783C27.165 0.102783 35 7.33341 35 16.2528C35 25.1722 27.165 32.4028 17.5 32.4028C7.83504 32.4028 0 25.1722 0 16.2528ZM17.5009 7.63945C14.9661 7.63945 14.6479 7.64968 13.6524 7.69147C12.6588 7.73346 11.9806 7.87867 11.3871 8.09165C10.7732 8.31163 10.2525 8.60596 9.73372 9.08488C9.21455 9.56366 8.89562 10.0442 8.65645 10.6105C8.42508 11.1584 8.26758 11.7845 8.22289 12.7011C8.17833 13.6199 8.16667 13.9136 8.16667 16.2529C8.16667 18.5921 8.17797 18.8848 8.22303 19.8036C8.26875 20.7205 8.42603 21.3464 8.65667 21.8941C8.89525 22.4606 9.21411 22.9412 9.73314 23.42C10.2517 23.8991 10.7724 24.1941 11.3859 24.4141C11.9798 24.6271 12.6582 24.7722 13.6516 24.8142C14.6472 24.8561 14.9651 24.8663 17.4997 24.8663C20.0347 24.8663 20.3518 24.8561 21.3474 24.8142C22.341 24.7722 23.02 24.6271 23.6139 24.4141C24.2276 24.1941 24.7475 23.8991 25.2661 23.42C25.7852 22.9412 26.1042 22.4606 26.3433 21.8943C26.5728 21.3464 26.7303 20.7203 26.777 19.8038C26.8217 18.885 26.8333 18.5921 26.8333 16.2529C26.8333 13.9136 26.8217 13.6201 26.777 12.7013C26.7303 11.7843 26.5728 11.1584 26.3433 10.6107C26.1042 10.0442 25.7852 9.56366 25.2661 9.08488C24.7469 8.60576 24.2277 8.31149 23.6133 8.09165C23.0183 7.87867 22.3397 7.73346 21.3461 7.69147C20.3505 7.64968 20.0336 7.63945 17.498 7.63945H17.5009Z" fill="#B4B4B4"/>
<path fill-rule="evenodd" clip-rule="evenodd" d="M16.6636 9.19161C16.9121 9.19127 17.1894 9.19161 17.5009 9.19161C19.9929 9.19161 20.2882 9.19988 21.2723 9.24113C22.1823 9.27956 22.6763 9.41986 23.0053 9.53775C23.4408 9.69387 23.7514 9.88047 24.0778 10.1819C24.4045 10.4834 24.6067 10.7705 24.7763 11.1725C24.904 11.4758 25.0563 11.9316 25.0977 12.7714C25.1424 13.6794 25.1522 13.9522 25.1522 16.2508C25.1522 18.5495 25.1424 18.8223 25.0977 19.7303C25.0561 20.5701 24.904 21.0259 24.7763 21.3291C24.6071 21.7311 24.4045 22.0173 24.0778 22.3187C23.7511 22.6201 23.441 22.8067 23.0053 22.9628C22.6766 23.0813 22.1823 23.2212 21.2723 23.2597C20.2885 23.3009 19.9929 23.3099 17.5009 23.3099C15.0086 23.3099 14.7133 23.3009 13.7294 23.2597C12.8194 23.2209 12.3255 23.0805 11.9963 22.9626C11.5607 22.8065 11.2496 22.6199 10.9229 22.3185C10.5962 22.017 10.394 21.7306 10.2245 21.3285C10.0968 21.0252 9.94451 20.5694 9.90309 19.7296C9.85832 18.8216 9.84943 18.5488 9.84943 16.2487C9.84943 13.9485 9.85832 13.6772 9.90309 12.7692C9.94466 11.9294 10.0968 11.4736 10.2245 11.17C10.3937 10.768 10.5962 10.4809 10.9229 10.1794C11.2496 9.87798 11.5607 9.69138 11.9963 9.53486C12.3253 9.41643 12.8194 9.27646 13.7294 9.2379C14.5904 9.20204 14.9241 9.19127 16.6636 9.18945V9.19161ZM22.483 10.6218C21.8646 10.6218 21.363 11.0843 21.363 11.655C21.363 12.2257 21.8646 12.6886 22.483 12.6886C23.1013 12.6886 23.603 12.2257 23.603 11.655C23.603 11.0844 23.1013 10.6218 22.483 10.6218ZM17.5009 11.8294C14.8538 11.8294 12.7078 13.81 12.7078 16.2528C12.7078 18.6956 14.8538 20.6753 17.5009 20.6753C20.1479 20.6753 22.2932 18.6956 22.2932 16.2528C22.2932 13.81 20.1479 11.8294 17.5009 11.8294Z" fill="#B4B4B4"/>
<path fill-rule="evenodd" clip-rule="evenodd" d="M17.5009 13.3818C19.219 13.3818 20.612 14.6672 20.612 16.253C20.612 17.8386 19.219 19.1241 17.5009 19.1241C15.7826 19.1241 14.3898 17.8386 14.3898 16.253C14.3898 14.6672 15.7826 13.3818 17.5009 13.3818Z" fill="#B4B4B4"/>
</svg>
