<svg width="20" height="20" viewBox="0 0 20 20" fill="none" xmlns="http://www.w3.org/2000/svg">
<path d="M10 17.3885C14.1421 17.3885 17.5 14.1184 17.5 10.0846C17.5 6.0508 14.1421 2.78076 10 2.78076C5.85786 2.78076 2.5 6.0508 2.5 10.0846C2.5 14.1184 5.85786 17.3885 10 17.3885Z" stroke="white" stroke-width="1.66667" stroke-linecap="round" stroke-linejoin="round"/>
<path d="M3 7.64996H17" stroke="white" stroke-width="1.66667" stroke-linecap="round" stroke-linejoin="round"/>
<path d="M3 12.5192H17" stroke="white" stroke-width="1.66667" stroke-linecap="round" stroke-linejoin="round"/>
<path d="M9.58322 2.78076C8.17934 4.9716 7.43506 7.50218 7.43506 10.0846C7.43506 12.667 8.17934 15.1976 9.58322 17.3885" stroke="white" stroke-width="1.66667" stroke-linecap="round" stroke-linejoin="round"/>
<path d="M10.4167 2.78076C11.8206 4.9716 12.5649 7.50218 12.5649 10.0846C12.5649 12.667 11.8206 15.1976 10.4167 17.3885" stroke="white" stroke-width="1.66667" stroke-linecap="round" stroke-linejoin="round"/>
</svg>
