<svg width="145" height="52" viewBox="0 0 145 52" fill="none" xmlns="http://www.w3.org/2000/svg">
<path d="M57.0331 32.6017V16.945H63.8773C65.5772 16.945 67.0683 17.273 68.3506 17.9291C69.633 18.5852 70.632 19.4948 71.3478 20.6579C72.0635 21.8209 72.4214 23.1928 72.4214 24.7733C72.4214 26.339 72.0635 27.7108 71.3478 28.8888C70.632 30.0519 69.633 30.9615 68.3506 31.6175C67.0683 32.2736 65.5772 32.6017 63.8773 32.6017H57.0331ZM59.9408 30.1413H63.7431C64.9211 30.1413 65.935 29.9177 66.785 29.4703C67.6498 29.023 68.3133 28.3967 68.7756 27.5915C69.2528 26.7863 69.4913 25.8469 69.4913 24.7733C69.4913 23.6848 69.2528 22.7454 68.7756 21.9551C68.3133 21.1499 67.6498 20.5237 66.785 20.0763C65.935 19.629 64.9211 19.4053 63.7431 19.4053H59.9408V30.1413Z" fill="url(#paint0_linear_802_31)"/>
<path d="M80.6114 32.7582C79.3887 32.7582 78.3002 32.4973 77.3459 31.9754C76.3916 31.4386 75.6386 30.708 75.0868 29.7835C74.5351 28.859 74.2593 27.8078 74.2593 26.6298C74.2593 25.4369 74.5351 24.3856 75.0868 23.4761C75.6386 22.5516 76.3916 21.8284 77.3459 21.3065C78.3002 20.7846 79.3887 20.5237 80.6114 20.5237C81.849 20.5237 82.945 20.7846 83.8993 21.3065C84.8685 21.8284 85.6216 22.5441 86.1584 23.4537C86.7101 24.3633 86.9859 25.422 86.9859 26.6298C86.9859 27.8078 86.7101 28.859 86.1584 29.7835C85.6216 30.708 84.8685 31.4386 83.8993 31.9754C82.945 32.4973 81.849 32.7582 80.6114 32.7582ZM80.6114 30.365C81.2973 30.365 81.9087 30.2159 82.4455 29.9177C82.9823 29.6195 83.3998 29.187 83.698 28.6204C84.0112 28.0538 84.1677 27.3902 84.1677 26.6298C84.1677 25.8544 84.0112 25.1909 83.698 24.6391C83.3998 24.0725 82.9823 23.6401 82.4455 23.3419C81.9087 23.0436 81.3048 22.8945 80.6338 22.8945C79.9479 22.8945 79.3365 23.0436 78.7997 23.3419C78.2778 23.6401 77.8603 24.0725 77.5472 24.6391C77.234 25.1909 77.0775 25.8544 77.0775 26.6298C77.0775 27.3902 77.234 28.0538 77.5472 28.6204C77.8603 29.187 78.2778 29.6195 78.7997 29.9177C79.3365 30.2159 79.9404 30.365 80.6114 30.365Z" fill="url(#paint1_linear_802_31)"/>
<path d="M89.6594 32.6017V16.0056H92.4553V32.6017H89.6594Z" fill="url(#paint2_linear_802_31)"/>
<path d="M102.745 32.7582C101.776 32.7582 100.889 32.5346 100.084 32.0872C99.2934 31.6399 98.6597 30.9689 98.1825 30.0742C97.7203 29.1647 97.4892 28.0165 97.4892 26.6298C97.4892 25.2281 97.7128 24.08 98.1602 23.1853C98.6224 22.2906 99.2487 21.6271 100.039 21.1947C100.829 20.7473 101.731 20.5237 102.745 20.5237C103.923 20.5237 104.96 20.7772 105.854 21.2841C106.764 21.7911 107.48 22.4994 108.002 23.409C108.538 24.3185 108.807 25.3921 108.807 26.6298C108.807 27.8674 108.538 28.9485 108.002 29.8729C107.48 30.7825 106.764 31.4908 105.854 31.9978C104.96 32.5048 103.923 32.7582 102.745 32.7582ZM96.1248 36.9408V20.6579H98.7864V23.4761L98.697 26.6521L98.9207 29.8282V36.9408H96.1248ZM102.432 30.365C103.103 30.365 103.7 30.2159 104.222 29.9177C104.758 29.6195 105.183 29.187 105.496 28.6204C105.81 28.0538 105.966 27.3902 105.966 26.6298C105.966 25.8544 105.81 25.1909 105.496 24.6391C105.183 24.0725 104.758 23.6401 104.222 23.3419C103.7 23.0436 103.103 22.8945 102.432 22.8945C101.761 22.8945 101.157 23.0436 100.621 23.3419C100.084 23.6401 99.6587 24.0725 99.3456 24.6391C99.0325 25.1909 98.8759 25.8544 98.8759 26.6298C98.8759 27.3902 99.0325 28.0538 99.3456 28.6204C99.6587 29.187 100.084 29.6195 100.621 29.9177C101.157 30.2159 101.761 30.365 102.432 30.365Z" fill="url(#paint3_linear_802_31)"/>
<path d="M118.235 20.5237C119.19 20.5237 120.04 20.7101 120.785 21.0828C121.546 21.4556 122.142 22.0297 122.574 22.8051C123.007 23.5655 123.223 24.5497 123.223 25.7575V32.6017H120.427V26.1153C120.427 25.0566 120.174 24.2664 119.667 23.7445C119.175 23.2226 118.481 22.9616 117.587 22.9616C116.931 22.9616 116.349 23.0958 115.842 23.3642C115.335 23.6326 114.94 24.0352 114.657 24.572C114.388 25.0939 114.254 25.7575 114.254 26.5627V32.6017H111.458V16.0056H114.254V23.8787L113.65 22.8945C114.068 22.1341 114.672 21.5525 115.462 21.1499C116.267 20.7324 117.192 20.5237 118.235 20.5237Z" fill="url(#paint4_linear_802_31)"/>
<path d="M126.77 32.6017V20.6579H129.566V32.6017H126.77ZM128.179 18.6896C127.657 18.6896 127.225 18.5256 126.882 18.1975C126.554 17.8695 126.39 17.4743 126.39 17.0121C126.39 16.5349 126.554 16.1398 126.882 15.8267C127.225 15.4986 127.657 15.3346 128.179 15.3346C128.701 15.3346 129.126 15.4912 129.454 15.8043C129.797 16.1025 129.968 16.4828 129.968 16.945C129.968 17.4371 129.804 17.8546 129.476 18.1975C129.148 18.5256 128.716 18.6896 128.179 18.6896Z" fill="url(#paint5_linear_802_31)"/>
<path d="M140.012 20.5237C140.967 20.5237 141.817 20.7101 142.562 21.0828C143.323 21.4556 143.919 22.0297 144.351 22.8051C144.784 23.5655 145 24.5497 145 25.7575V32.6017H142.204V26.1153C142.204 25.0566 141.951 24.2664 141.444 23.7445C140.952 23.2226 140.258 22.9616 139.364 22.9616C138.708 22.9616 138.126 23.0958 137.619 23.3642C137.112 23.6326 136.717 24.0352 136.434 24.572C136.165 25.0939 136.031 25.7575 136.031 26.5627V32.6017H133.235V20.6579H135.897V23.8787L135.427 22.8945C135.845 22.1341 136.449 21.5525 137.239 21.1499C138.044 20.7324 138.968 20.5237 140.012 20.5237Z" fill="url(#paint6_linear_802_31)"/>
<path d="M19.3134 1.11334C21.8846 -0.371115 25.0524 -0.371112 27.6235 1.11334L42.7819 9.86504C45.353 11.3495 46.9369 14.0929 46.9369 17.0618V34.5652C46.9369 37.5341 45.353 40.2775 42.7819 41.7619L27.6235 50.5136C25.0524 51.9981 21.8846 51.9981 19.3134 50.5136L4.15504 41.7619C1.58389 40.2775 0 37.5341 0 34.5652V17.0618C0 14.0929 1.58389 11.3495 4.15504 9.86504L19.3134 1.11334Z" fill="url(#paint7_linear_802_31)"/>
<g filter="url(#filter0_d_802_31)">
<path d="M9.12195 29.6602C9.12195 25.0707 12.8425 21.3501 17.432 21.3501H29.505C34.0945 21.3501 37.8151 25.0707 37.8151 29.6602V32.1688C37.8151 36.7583 34.0945 40.4788 29.505 40.4788H17.432C12.8425 40.4788 9.12195 36.7583 9.12195 32.1688V29.6602Z" fill="white"/>
</g>
<g filter="url(#filter1_d_802_31)">
<path d="M9.12707 14.8755L9.93605 14.811C10.8673 14.7368 11.7583 14.3993 12.505 13.8379L12.5704 13.7887C12.8817 13.5547 13.1657 13.2864 13.4172 12.989L13.92 12.3944C14.5106 11.6959 15.1906 11.0781 15.9424 10.5568L16.0845 10.4583C17.0885 9.76204 18.2169 9.26506 19.4083 8.99432C20.0044 8.85886 20.6121 8.78098 21.2231 8.76175L22.9477 8.70745C23.0668 8.7037 23.1842 8.67787 23.2938 8.63127C23.7845 8.42277 24.0107 7.85561 23.7601 7.38512C23.4146 6.73675 22.9012 5.90461 22.3872 5.55384C21.883 5.2097 22.3058 5.15712 22.7742 5.17728C23.2819 5.19913 23.7718 5.35526 24.2384 5.55647C24.8001 5.79865 25.3212 6.12582 25.7834 6.5265L26.0892 6.79161C27.0608 7.63394 28.2094 8.24701 29.45 8.58548L29.6058 8.62799C30.3106 8.8203 30.9903 9.09511 31.6308 9.44674L31.8848 9.58619C32.8456 10.1137 33.7277 10.7733 34.5055 11.5456L35.0601 12.0964C35.7256 12.7572 36.3596 13.457 36.8386 14.2632C36.9373 14.4294 37.0239 14.5878 37.0817 14.7182C37.4157 15.472 36.5125 16.3632 36.9065 17.0875C36.941 17.151 36.9831 17.2161 37.0337 17.2828C37.6222 18.057 37.6827 19.301 36.6597 18.6536L36.6124 18.6237C36.6005 18.6163 35.1423 17.6352 35.1312 17.6267C34.961 17.496 34.7812 17.3784 34.5933 17.2747L32.6742 16.2161L31.1589 15.2942C30.9508 15.1676 30.7259 15.0708 30.4908 15.0067C29.63 14.7718 28.7089 14.994 28.0499 15.5955L27.8971 15.735C27.8763 15.7539 27.8553 15.7726 27.8337 15.7906C27.6857 15.914 27.0516 16.4273 26.4065 16.7155C25.4066 17.1622 24.2595 17.2418 25.0107 16.4574C25.312 16.1427 25.5421 15.8807 25.7178 15.6637C25.8971 15.4424 26.8003 14.295 26.8753 14.0202C27.0586 13.3482 25.6266 13.3555 24.4163 13.4755C23.3558 13.5806 22.2947 13.7015 21.2291 13.7072L18.2816 13.7622L17.1957 13.8342L16.9784 13.8638C15.927 14.0072 14.8959 14.2727 13.9059 14.6551C13.8935 14.6633 13.8808 14.6698 13.8681 14.6747C13.2976 14.9729 12.8769 15.4953 12.7074 16.1166C12.6367 16.3758 12.6117 16.6453 12.6334 16.913L12.6545 17.1726C12.6995 17.7272 12.6221 18.2848 12.4279 18.8062L12.2774 19.2101C12.2534 19.2745 12.1697 19.2904 12.1238 19.2393L11.6315 18.6913C11.3499 18.3778 11.1517 17.9985 11.0552 17.5882C10.9892 17.3076 10.9719 17.0177 11.0043 16.7313L11.0397 16.4179C11.0448 16.3724 11.0076 16.3334 10.9619 16.3364L10.5377 16.3645C10.1576 16.3897 9.77595 16.3514 9.40844 16.2511L9.34326 16.2333L7.58323 15.6351C7.55174 15.6244 7.54309 15.5839 7.56744 15.5613C7.99522 15.1635 8.54478 14.9219 9.12707 14.8755Z" fill="white"/>
</g>
<path d="M32.6743 16.2161L34.6429 17.302L34.8714 17.4281C34.8741 17.4296 34.8768 17.4314 34.8793 17.4333C34.9343 17.4755 35.0053 17.4127 34.9689 17.3537C34.6924 16.9063 34.4375 16.5893 33.9893 16.0897L32.714 14.9738C31.9935 14.4425 31.5701 14.169 30.8012 13.6986C30.2025 13.3693 29.8497 13.1976 29.2071 12.9016C28.3822 12.4715 27.821 12.3004 26.9757 12.0427C26.8738 12.0116 26.7677 11.9793 26.6566 11.9451C25.9617 11.7618 25.526 11.711 24.7437 11.6263L22.8308 11.6263C21.3213 11.6402 20.4858 11.7252 19.0051 11.9451C18.0123 12.1547 17.4538 12.2964 16.4546 12.5827C15.8208 12.8472 15.4747 13.034 14.8605 13.3798C14.5147 13.5826 14.3444 13.728 14.0635 14.0174C13.8915 14.1741 13.7747 14.3078 13.6791 14.4563C13.595 14.5869 13.7695 14.7293 13.906 14.6551C14.8959 14.2727 15.927 14.0072 16.9785 13.8638L17.1957 13.8342L18.2817 13.7622L21.2291 13.7072C22.2948 13.7015 23.3559 13.5806 24.4163 13.4755C25.6266 13.3555 27.0587 13.3482 26.8753 14.0202C26.8402 14.149 26.6229 14.4698 26.3835 14.7969C26.1385 15.1318 25.8704 15.4734 25.7508 15.6228C25.7381 15.6387 25.727 15.6524 25.7179 15.6637C25.5422 15.8807 25.3121 16.1427 25.0108 16.4574C24.2596 17.2417 25.4066 17.1621 26.4066 16.7154C27.0517 16.4272 27.6858 15.914 27.8337 15.7906C27.8553 15.7726 27.8763 15.7539 27.8971 15.735L28.0499 15.5955C28.709 14.994 29.6301 14.7718 30.4909 15.0067C30.7259 15.0708 30.9508 15.1676 31.1589 15.2942L32.6743 16.2161Z" fill="#AAEAFF"/>
<path d="M34.8793 17.4333C34.8768 17.4314 34.8741 17.4296 34.8714 17.4281L34.6429 17.302C34.8185 17.4075 34.9125 17.4673 35.0693 17.5792L34.8793 17.4333Z" fill="#AAEAFF"/>
<path fill-rule="evenodd" clip-rule="evenodd" d="M34.6429 17.302L34.8755 17.4304L35.0693 17.5792L35.1312 17.6267C34.7828 17.0208 34.5232 16.6847 33.9893 16.0897L32.714 14.9738C31.9935 14.4425 31.5701 14.169 30.8012 13.6986C30.2025 13.3693 29.8497 13.1976 29.2071 12.9016C28.3822 12.4715 27.821 12.3004 26.9757 12.0427C26.8738 12.0116 26.7677 11.9793 26.6566 11.9451C25.9617 11.7618 25.526 11.711 24.7437 11.6263L22.8308 11.6263C21.3213 11.6402 20.4858 11.7252 19.0051 11.9451C18.0123 12.1547 17.4538 12.2964 16.4546 12.5827C15.8208 12.8472 15.4747 13.034 14.8605 13.3798C14.5147 13.5826 14.3444 13.728 14.0635 14.0174C13.7427 14.3098 13.614 14.5218 13.4563 14.8998L13.906 14.6551L15.3959 14.0796L17.1957 13.8342L18.2817 13.7622L21.2291 13.7072L22.8308 13.6986C22.8308 13.6986 27.187 12.8778 26.8753 14.0202C26.6769 14.7475 26.4918 14.8317 26.3835 14.7969C26.1385 15.1318 25.8704 15.4734 25.7508 15.6228C25.5712 15.8475 25.3313 16.1227 25.0108 16.4574C24.2596 17.2417 25.4066 17.1621 26.4066 16.7154C27.1434 16.3862 27.8659 15.7634 27.8659 15.7634L29.1084 14.6295L30.8452 15.1033L32.6743 16.2161L34.6429 17.302Z" fill="#AAEAFF"/>
<g filter="url(#filter2_i_802_31)">
<path d="M26.019 28.364C26.019 29.7726 24.8771 30.9145 23.4685 30.9145C22.0599 30.9145 20.918 29.7726 20.918 28.364C20.918 26.9554 22.0599 25.8135 23.4685 25.8135C24.8771 25.8135 26.019 26.9554 26.019 28.364Z" fill="#AAEAFF"/>
<path d="M22.1932 30.5957C22.1932 29.8914 22.7641 29.3204 23.4684 29.3204C24.1727 29.3204 24.7437 29.8914 24.7437 30.5957V34.4214C24.7437 35.1257 24.1727 35.6967 23.4684 35.6967C22.7641 35.6967 22.1932 35.1257 22.1932 34.4214V30.5957Z" fill="#AAEAFF"/>
</g>
<defs>
<filter id="filter0_d_802_31" x="7.12195" y="21.3501" width="32.6931" height="23.1287" filterUnits="userSpaceOnUse" color-interpolation-filters="sRGB">
<feFlood flood-opacity="0" result="BackgroundImageFix"/>
<feColorMatrix in="SourceAlpha" type="matrix" values="0 0 0 0 0 0 0 0 0 0 0 0 0 0 0 0 0 0 127 0" result="hardAlpha"/>
<feOffset dy="2"/>
<feGaussianBlur stdDeviation="1"/>
<feComposite in2="hardAlpha" operator="out"/>
<feColorMatrix type="matrix" values="0 0 0 0 0 0 0 0 0 0 0 0 0 0 0 0 0 0 0.25 0"/>
<feBlend mode="normal" in2="BackgroundImageFix" result="effect1_dropShadow_802_31"/>
<feBlend mode="normal" in="SourceGraphic" in2="effect1_dropShadow_802_31" result="shape"/>
</filter>
<filter id="filter1_d_802_31" x="5.55341" y="5.17354" width="33.9034" height="18.0961" filterUnits="userSpaceOnUse" color-interpolation-filters="sRGB">
<feFlood flood-opacity="0" result="BackgroundImageFix"/>
<feColorMatrix in="SourceAlpha" type="matrix" values="0 0 0 0 0 0 0 0 0 0 0 0 0 0 0 0 0 0 127 0" result="hardAlpha"/>
<feOffset dy="2"/>
<feGaussianBlur stdDeviation="1"/>
<feComposite in2="hardAlpha" operator="out"/>
<feColorMatrix type="matrix" values="0 0 0 0 0 0 0 0 0 0 0 0 0 0 0 0 0 0 0.25 0"/>
<feBlend mode="normal" in2="BackgroundImageFix" result="effect1_dropShadow_802_31"/>
<feBlend mode="normal" in="SourceGraphic" in2="effect1_dropShadow_802_31" result="shape"/>
</filter>
<filter id="filter2_i_802_31" x="20.918" y="25.8135" width="5.10101" height="10.8832" filterUnits="userSpaceOnUse" color-interpolation-filters="sRGB">
<feFlood flood-opacity="0" result="BackgroundImageFix"/>
<feBlend mode="normal" in="SourceGraphic" in2="BackgroundImageFix" result="shape"/>
<feColorMatrix in="SourceAlpha" type="matrix" values="0 0 0 0 0 0 0 0 0 0 0 0 0 0 0 0 0 0 127 0" result="hardAlpha"/>
<feOffset dy="1"/>
<feGaussianBlur stdDeviation="1"/>
<feComposite in2="hardAlpha" operator="arithmetic" k2="-1" k3="1"/>
<feColorMatrix type="matrix" values="0 0 0 0 0 0 0 0 0 0 0 0 0 0 0 0 0 0 0.2 0"/>
<feBlend mode="normal" in2="shape" result="effect1_innerShadow_802_31"/>
</filter>
<linearGradient id="paint0_linear_802_31" x1="47.0673" y1="24.5637" x2="47.941" y2="12.8561" gradientUnits="userSpaceOnUse">
<stop stop-color="#26BEFF"/>
<stop offset="1" stop-color="#8EDDFF"/>
</linearGradient>
<linearGradient id="paint1_linear_802_31" x1="47.0673" y1="24.5637" x2="47.941" y2="12.8561" gradientUnits="userSpaceOnUse">
<stop stop-color="#26BEFF"/>
<stop offset="1" stop-color="#8EDDFF"/>
</linearGradient>
<linearGradient id="paint2_linear_802_31" x1="47.0673" y1="24.5637" x2="47.941" y2="12.8561" gradientUnits="userSpaceOnUse">
<stop stop-color="#26BEFF"/>
<stop offset="1" stop-color="#8EDDFF"/>
</linearGradient>
<linearGradient id="paint3_linear_802_31" x1="47.0673" y1="24.5637" x2="47.941" y2="12.8561" gradientUnits="userSpaceOnUse">
<stop stop-color="#26BEFF"/>
<stop offset="1" stop-color="#8EDDFF"/>
</linearGradient>
<linearGradient id="paint4_linear_802_31" x1="47.0673" y1="24.5637" x2="47.941" y2="12.8561" gradientUnits="userSpaceOnUse">
<stop stop-color="#26BEFF"/>
<stop offset="1" stop-color="#8EDDFF"/>
</linearGradient>
<linearGradient id="paint5_linear_802_31" x1="47.0673" y1="24.5637" x2="47.941" y2="12.8561" gradientUnits="userSpaceOnUse">
<stop stop-color="#26BEFF"/>
<stop offset="1" stop-color="#8EDDFF"/>
</linearGradient>
<linearGradient id="paint6_linear_802_31" x1="47.0673" y1="24.5637" x2="47.941" y2="12.8561" gradientUnits="userSpaceOnUse">
<stop stop-color="#26BEFF"/>
<stop offset="1" stop-color="#8EDDFF"/>
</linearGradient>
<linearGradient id="paint7_linear_802_31" x1="0.0357514" y1="11.9451" x2="47.22" y2="39.5224" gradientUnits="userSpaceOnUse">
<stop stop-color="#00B3FF"/>
<stop offset="0.5042" stop-color="#8EDDFF"/>
<stop offset="1" stop-color="#26BEFF"/>
</linearGradient>
</defs>
</svg>
