<svg width="100" height="93" viewBox="0 0 100 93" fill="none" xmlns="http://www.w3.org/2000/svg">
<path d="M88 0.585693H12C5.37258 0.585693 0 5.95828 0 12.5857V80.8714C0 87.4988 5.37258 92.8714 12 92.8714H88C94.6274 92.8714 100 87.4988 100 80.8714V12.5857C100 5.95828 94.6274 0.585693 88 0.585693Z" fill="#18254A"/>
<path d="M31.8636 9.05914C32.7255 9.05914 33.4242 8.41434 33.4242 7.61893C33.4242 6.82352 32.7255 6.17871 31.8636 6.17871C31.0017 6.17871 30.303 6.82352 30.303 7.61893C30.303 8.41434 31.0017 9.05914 31.8636 9.05914Z" fill="#B4B4B4"/>
<path d="M42.5151 9.05914H40.9545C40.0702 9.05914 39.3939 8.43505 39.3939 7.61893C39.3939 6.8028 40.0702 6.17871 40.9545 6.17871H42.5151V9.05914Z" fill="#B4B4B4"/>
<path d="M45.5454 6.17871H42.4242V9.05914H45.5454V6.17871Z" fill="#B4B4B4"/>
<path d="M48.5757 9.05914H45.4545V6.17871H47.0151C47.8994 6.17871 48.5757 6.8028 48.5757 7.61893V9.05914Z" fill="#B4B4B4"/>
<path d="M54.6364 9.05914H51.5151V7.61893C51.5151 6.8028 52.1914 6.17871 53.0757 6.17871H54.6364V9.05914Z" fill="#B4B4B4"/>
<path d="M57.6666 9.05914H54.5454V6.17871H56.106C56.9904 6.17871 57.6666 6.8028 57.6666 7.61893V9.05914Z" fill="#B4B4B4"/>
<path d="M63.7272 9.05914H60.606V7.61893C60.606 6.8028 61.2822 6.17871 62.1666 6.17871C63.0509 6.17871 63.7272 6.8028 63.7272 7.61893V9.05914Z" fill="#B4B4B4"/>
<path d="M68.2272 9.05914C69.0891 9.05914 69.7878 8.41434 69.7878 7.61893C69.7878 6.82352 69.0891 6.17871 68.2272 6.17871C67.3653 6.17871 66.6666 6.82352 66.6666 7.61893C66.6666 8.41434 67.3653 9.05914 68.2272 9.05914Z" fill="#B4B4B4"/>
<path d="M36.4545 11.8558H33.3333V10.4156C33.3333 9.59944 34.0095 8.97534 34.8939 8.97534H36.4545V11.8558Z" fill="#B4B4B4"/>
<path d="M37.9241 11.8558H36.3635V8.97534H37.9241C38.8085 8.97534 39.4847 9.59944 39.4847 10.4156C39.4847 11.2317 38.8085 11.8558 37.9241 11.8558Z" fill="#B4B4B4"/>
<path d="M45.5454 8.97534H42.4242V11.8558H45.5454V8.97534Z" fill="#B4B4B4"/>
<path d="M48.5757 8.97534H45.4545V11.8558H48.5757V8.97534Z" fill="#B4B4B4"/>
<path d="M54.6364 11.8558H53.0757C52.1914 11.8558 51.5151 11.2317 51.5151 10.4156V8.97534H54.6364V11.8558Z" fill="#B4B4B4"/>
<path d="M56.106 11.8558H54.5454V8.97534H57.6666V10.4156C57.6666 11.2317 56.9904 11.8558 56.106 11.8558Z" fill="#B4B4B4"/>
<path d="M63.7272 11.8558H62.1666C61.2822 11.8558 60.606 11.2317 60.606 10.4156V8.97534H63.7272V11.8558Z" fill="#B4B4B4"/>
<path d="M66.7576 11.8558H63.6364V8.97534H65.197C66.0813 8.97534 66.7576 9.59944 66.7576 10.4156V11.8558Z" fill="#B4B4B4"/>
<path d="M34.8939 14.6522C34.0095 14.6522 33.3333 14.0281 33.3333 13.2119V11.7717H36.4545V13.2119C36.4545 14.0281 35.7782 14.6522 34.8939 14.6522Z" fill="#B4B4B4"/>
<path d="M45.5454 14.6522H43.9848C43.1005 14.6522 42.4242 14.0281 42.4242 13.2119V11.7717H45.5454V14.6522Z" fill="#B4B4B4"/>
<path d="M47.0151 14.6522H45.4545V11.7717H48.5757V13.2119C48.5757 14.0281 47.8994 14.6522 47.0151 14.6522Z" fill="#B4B4B4"/>
<path d="M66.7576 11.7717H63.6364V14.6522H66.7576V11.7717Z" fill="#B4B4B4"/>
<path d="M68.2272 14.6522H66.6666V11.7717H68.2272C69.1116 11.7717 69.7878 12.3958 69.7878 13.2119C69.7878 14.0281 69.1116 14.6522 68.2272 14.6522Z" fill="#B4B4B4"/>
<path d="M39.4847 17.4488H37.9241C37.0398 17.4488 36.3635 16.8247 36.3635 16.0086C36.3635 15.1925 37.0398 14.5684 37.9241 14.5684H39.4847V17.4488Z" fill="#B4B4B4"/>
<path d="M42.5151 17.4488H39.3939V14.5684H40.9545C41.8389 14.5684 42.5151 15.1925 42.5151 16.0086V17.4488Z" fill="#B4B4B4"/>
<path d="M54.6364 17.4488H51.5151V16.0086C51.5151 15.1925 52.1914 14.5684 53.0757 14.5684C53.9601 14.5684 54.6364 15.1925 54.6364 16.0086V17.4488Z" fill="#B4B4B4"/>
<path d="M59.1363 17.4488C59.9982 17.4488 60.6969 16.804 60.6969 16.0086C60.6969 15.2132 59.9982 14.5684 59.1363 14.5684C58.2744 14.5684 57.5757 15.2132 57.5757 16.0086C57.5757 16.804 58.2744 17.4488 59.1363 17.4488Z" fill="#B4B4B4"/>
<path d="M66.7576 14.5684H63.6364V17.4488H66.7576V14.5684Z" fill="#B4B4B4"/>
<path d="M33.4242 20.2452H30.303V18.805C30.303 17.9888 30.9792 17.3647 31.8636 17.3647C32.7479 17.3647 33.4242 17.9888 33.4242 18.805V20.2452Z" fill="#B4B4B4"/>
<path d="M42.5151 17.3647H39.3939V20.2452H42.5151V17.3647Z" fill="#B4B4B4"/>
<path d="M45.5454 17.3647H42.4242V20.2452H45.5454V17.3647Z" fill="#B4B4B4"/>
<path d="M48.5757 20.2452H45.4545V17.3647H47.0151C47.8994 17.3647 48.5757 17.9888 48.5757 18.805V20.2452Z" fill="#B4B4B4"/>
<path d="M53.0757 20.2452C52.1914 20.2452 51.5151 19.6211 51.5151 18.805V17.3647H54.6364V18.805C54.6364 19.6211 53.9601 20.2452 53.0757 20.2452Z" fill="#B4B4B4"/>
<path d="M66.7576 20.2452H65.197C64.3126 20.2452 63.6364 19.6211 63.6364 18.805V17.3647H66.7576V20.2452Z" fill="#B4B4B4"/>
<path d="M68.2272 20.2452H66.6666V17.3647H68.2272C69.1116 17.3647 69.7878 17.9888 69.7878 18.805C69.7878 19.6211 69.1116 20.2452 68.2272 20.2452Z" fill="#B4B4B4"/>
<path d="M33.4242 20.1614H30.303V23.0418H33.4242V20.1614Z" fill="#B4B4B4"/>
<path d="M39.4847 23.0418H36.3635V21.6016C36.3635 20.7855 37.0398 20.1614 37.9241 20.1614H39.4847V23.0418Z" fill="#B4B4B4"/>
<path d="M40.9545 23.0418H39.3939V20.1614H42.5151V21.6016C42.5151 22.4177 41.8389 23.0418 40.9545 23.0418Z" fill="#B4B4B4"/>
<path d="M48.5757 23.0418H47.0151C46.1307 23.0418 45.4545 22.4177 45.4545 21.6016V20.1614H48.5757V23.0418Z" fill="#B4B4B4"/>
<path d="M51.606 23.0418H48.4847V20.1614H50.0453C50.9297 20.1614 51.606 20.7855 51.606 21.6016V23.0418Z" fill="#B4B4B4"/>
<path d="M57.6666 23.0418H54.5454V21.6016C54.5454 20.7855 55.2217 20.1614 56.106 20.1614C56.9904 20.1614 57.6666 20.7855 57.6666 21.6016V23.0418Z" fill="#B4B4B4"/>
<path d="M63.7272 23.0418H60.606V21.6016C60.606 20.7855 61.2822 20.1614 62.1666 20.1614C63.0509 20.1614 63.7272 20.7855 63.7272 21.6016V23.0418Z" fill="#B4B4B4"/>
<path d="M31.8636 25.8384C30.9792 25.8384 30.303 25.2143 30.303 24.3982V22.958H33.4242V24.3982C33.4242 25.2143 32.7479 25.8384 31.8636 25.8384Z" fill="#B4B4B4"/>
<path d="M39.4847 22.958H36.3635V25.8384H39.4847V22.958Z" fill="#B4B4B4"/>
<path d="M45.5454 25.8384H42.4242V24.3982C42.4242 23.5821 43.1005 22.958 43.9848 22.958C44.8691 22.958 45.5454 23.5821 45.5454 24.3982V25.8384Z" fill="#B4B4B4"/>
<path d="M50.0453 25.8384C49.161 25.8384 48.4847 25.2143 48.4847 24.3982V22.958H51.606V24.3982C51.606 25.2143 50.9297 25.8384 50.0453 25.8384Z" fill="#B4B4B4"/>
<path d="M56.106 25.8384C55.2217 25.8384 54.5454 25.2143 54.5454 24.3982V22.958H57.6666V24.3982C57.6666 25.2143 56.9904 25.8384 56.106 25.8384Z" fill="#B4B4B4"/>
<path d="M62.1666 25.8384C61.2822 25.8384 60.606 25.2143 60.606 24.3982V22.958H63.7272V24.3982C63.7272 25.2143 63.0509 25.8384 62.1666 25.8384Z" fill="#B4B4B4"/>
<path d="M69.7878 25.8384H66.6666V24.3982C66.6666 23.5821 67.3429 22.958 68.2272 22.958C69.1116 22.958 69.7878 23.5821 69.7878 24.3982V25.8384Z" fill="#B4B4B4"/>
<path d="M36.4545 28.6348H33.3333V27.1946C33.3333 26.3785 34.0095 25.7544 34.8939 25.7544H36.4545V28.6348Z" fill="#B4B4B4"/>
<path d="M39.4847 25.7544H36.3635V28.6348H39.4847V25.7544Z" fill="#B4B4B4"/>
<path d="M42.5151 25.7544H39.3939V28.6348H42.5151V25.7544Z" fill="#B4B4B4"/>
<path d="M45.5454 25.7544H42.4242V28.6348H45.5454V25.7544Z" fill="#B4B4B4"/>
<path d="M54.6364 28.6348H51.5151V27.1946C51.5151 26.3785 52.1914 25.7544 53.0757 25.7544C53.9601 25.7544 54.6364 26.3785 54.6364 27.1946V28.6348Z" fill="#B4B4B4"/>
<path d="M69.7878 25.7544H66.6666V28.6348H69.7878V25.7544Z" fill="#B4B4B4"/>
<path d="M12.212 31.4315H9.09082V29.9912C9.09082 29.1751 9.76708 28.551 10.6514 28.551H12.212V31.4315Z" fill="#B4B4B4"/>
<path d="M15.2423 28.551H12.1211V31.4315H15.2423V28.551Z" fill="#B4B4B4"/>
<path d="M18.2727 28.551H15.1515V31.4315H18.2727V28.551Z" fill="#B4B4B4"/>
<path d="M21.303 28.551H18.1818V31.4315H21.303V28.551Z" fill="#B4B4B4"/>
<path d="M24.3333 28.551H21.212V31.4315H24.3333V28.551Z" fill="#B4B4B4"/>
<path d="M27.3635 28.551H24.2423V31.4315H27.3635V28.551Z" fill="#B4B4B4"/>
<path d="M30.3939 31.4315H27.2727V28.551H28.8333C29.7177 28.551 30.3939 29.1751 30.3939 29.9912V31.4315Z" fill="#B4B4B4"/>
<path d="M36.4545 31.4315H34.8939C34.0095 31.4315 33.3333 30.8074 33.3333 29.9912V28.551H36.4545V31.4315Z" fill="#B4B4B4"/>
<path d="M39.4847 28.551H36.3635V31.4315H39.4847V28.551Z" fill="#B4B4B4"/>
<path d="M42.5151 28.551H39.3939V31.4315H42.5151V28.551Z" fill="#B4B4B4"/>
<path d="M45.5454 28.551H42.4242V31.4315H45.5454V28.551Z" fill="#B4B4B4"/>
<path d="M48.5757 28.551H45.4545V31.4315H48.5757V28.551Z" fill="#B4B4B4"/>
<path d="M51.606 28.551H48.4847V31.4315H51.606V28.551Z" fill="#B4B4B4"/>
<path d="M54.6364 28.551H51.5151V31.4315H54.6364V28.551Z" fill="#B4B4B4"/>
<path d="M57.6666 31.4315H54.5454V28.551H56.106C56.9904 28.551 57.6666 29.1751 57.6666 29.9912V31.4315Z" fill="#B4B4B4"/>
<path d="M63.7272 31.4315H62.1666C61.2822 31.4315 60.606 30.8074 60.606 29.9912C60.606 29.1751 61.2822 28.551 62.1666 28.551H63.7272V31.4315Z" fill="#B4B4B4"/>
<path d="M66.7576 28.551H63.6364V31.4315H66.7576V28.551Z" fill="#B4B4B4"/>
<path d="M68.2272 31.4315H66.6666V28.551H69.7878V29.9912C69.7878 30.8074 69.1116 31.4315 68.2272 31.4315Z" fill="#B4B4B4"/>
<path d="M78.8788 31.4315H75.7576V29.9912C75.7576 29.1751 76.4338 28.551 77.3182 28.551H78.8788V31.4315Z" fill="#B4B4B4"/>
<path d="M81.9091 31.4315H78.7878V28.551H80.3484C81.2328 28.551 81.9091 29.1751 81.9091 29.9912V31.4315Z" fill="#B4B4B4"/>
<path d="M94.0303 31.4315H90.9091V29.9912C90.9091 29.1751 91.5853 28.551 92.4697 28.551C93.354 28.551 94.0303 29.1751 94.0303 29.9912V31.4315Z" fill="#B4B4B4"/>
<path d="M9.18176 34.2281H6.06055V32.7879C6.06055 31.9717 6.73681 31.3477 7.62115 31.3477H9.18176V34.2281Z" fill="#B4B4B4"/>
<path d="M12.212 31.3477H9.09082V34.2281H12.212V31.3477Z" fill="#B4B4B4"/>
<path d="M15.2423 31.3477H12.1211V34.2281H15.2423V31.3477Z" fill="#B4B4B4"/>
<path d="M18.2727 31.3477H15.1515V34.2281H18.2727V31.3477Z" fill="#B4B4B4"/>
<path d="M28.8333 34.2281C27.949 34.2281 27.2727 33.604 27.2727 32.7879V31.3477H30.3939V32.7879C30.3939 33.604 29.7177 34.2281 28.8333 34.2281Z" fill="#B4B4B4"/>
<path d="M37.9241 34.2281C37.0398 34.2281 36.3635 33.604 36.3635 32.7879V31.3477H39.4847V32.7879C39.4847 33.604 38.8085 34.2281 37.9241 34.2281Z" fill="#B4B4B4"/>
<path d="M43.9848 34.2281C43.1005 34.2281 42.4242 33.604 42.4242 32.7879V31.3477H45.5454V32.7879C45.5454 33.604 44.8691 34.2281 43.9848 34.2281Z" fill="#B4B4B4"/>
<path d="M57.6666 34.2281H56.106C55.2217 34.2281 54.5454 33.604 54.5454 32.7879V31.3477H57.6666V34.2281Z" fill="#B4B4B4"/>
<path d="M59.1363 34.2281H57.5757V31.3477H59.1363C60.0206 31.3477 60.6969 31.9717 60.6969 32.7879C60.6969 33.604 60.0206 34.2281 59.1363 34.2281Z" fill="#B4B4B4"/>
<path d="M72.8181 34.2281H69.6969V32.7879C69.6969 31.9717 70.3732 31.3477 71.2575 31.3477H72.8181V34.2281Z" fill="#B4B4B4"/>
<path d="M75.8484 31.3477H72.7272V34.2281H75.8484V31.3477Z" fill="#B4B4B4"/>
<path d="M78.8788 31.3477H75.7576V34.2281H78.8788V31.3477Z" fill="#B4B4B4"/>
<path d="M81.9091 31.3477H78.7878V34.2281H81.9091V31.3477Z" fill="#B4B4B4"/>
<path d="M84.9393 31.3477H81.8181V34.2281H84.9393V31.3477Z" fill="#B4B4B4"/>
<path d="M86.409 34.2281H84.8484V31.3477H86.409C87.2933 31.3477 87.9696 31.9717 87.9696 32.7879C87.9696 33.604 87.2933 34.2281 86.409 34.2281Z" fill="#B4B4B4"/>
<path d="M92.4697 34.2281C91.5853 34.2281 90.9091 33.604 90.9091 32.7879V31.3477H94.0303V32.7879C94.0303 33.604 93.354 34.2281 92.4697 34.2281Z" fill="#B4B4B4"/>
<path d="M7.62115 37.0245C6.73681 37.0245 6.06055 36.4004 6.06055 35.5843V34.144H9.18176V35.5843C9.18176 36.4004 8.5055 37.0245 7.62115 37.0245Z" fill="#B4B4B4"/>
<path d="M18.2727 37.0245H16.7121C15.8278 37.0245 15.1515 36.4004 15.1515 35.5843V34.144H18.2727V37.0245Z" fill="#B4B4B4"/>
<path d="M21.303 37.0245H18.1818V34.144H19.7424C20.6267 34.144 21.303 34.7681 21.303 35.5843V37.0245Z" fill="#B4B4B4"/>
<path d="M25.8029 37.0245C26.6648 37.0245 27.3635 36.3797 27.3635 35.5843C27.3635 34.7888 26.6648 34.144 25.8029 34.144C24.941 34.144 24.2423 34.7888 24.2423 35.5843C24.2423 36.3797 24.941 37.0245 25.8029 37.0245Z" fill="#B4B4B4"/>
<path d="M31.8636 37.0245C32.7255 37.0245 33.4242 36.3797 33.4242 35.5843C33.4242 34.7888 32.7255 34.144 31.8636 34.144C31.0017 34.144 30.303 34.7888 30.303 35.5843C30.303 36.3797 31.0017 37.0245 31.8636 37.0245Z" fill="#B4B4B4"/>
<path d="M48.5757 37.0245H47.0151C46.1307 37.0245 45.4545 36.4004 45.4545 35.5843C45.4545 34.7681 46.1307 34.144 47.0151 34.144H48.5757V37.0245Z" fill="#B4B4B4"/>
<path d="M51.606 34.144H48.4847V37.0245H51.606V34.144Z" fill="#B4B4B4"/>
<path d="M53.0757 37.0245H51.5151V34.144H53.0757C53.9601 34.144 54.6364 34.7681 54.6364 35.5843C54.6364 36.4004 53.9601 37.0245 53.0757 37.0245Z" fill="#B4B4B4"/>
<path opacity="0.1" d="M62.1666 37.0245C63.0285 37.0245 63.7272 36.3797 63.7272 35.5843C63.7272 34.7888 63.0285 34.144 62.1666 34.144C61.3047 34.144 60.606 34.7888 60.606 35.5843C60.606 36.3797 61.3047 37.0245 62.1666 37.0245Z" fill="#B4B4B4"/>
<path d="M69.7878 37.0245H68.2272C67.3429 37.0245 66.6666 36.4004 66.6666 35.5843C66.6666 34.7681 67.3429 34.144 68.2272 34.144H69.7878V37.0245Z" fill="#B4B4B4"/>
<path d="M72.8181 34.144H69.6969V37.0245H72.8181V34.144Z" fill="#B4B4B4"/>
<path d="M75.8484 34.144H72.7272V37.0245H75.8484V34.144Z" fill="#B4B4B4"/>
<path d="M78.8788 34.144H75.7576V37.0245H78.8788V34.144Z" fill="#B4B4B4"/>
<path d="M10.6514 39.8211C11.5133 39.8211 12.212 39.1763 12.212 38.3809C12.212 37.5855 11.5133 36.9407 10.6514 36.9407C9.78953 36.9407 9.09082 37.5855 9.09082 38.3809C9.09082 39.1763 9.78953 39.8211 10.6514 39.8211Z" fill="#B4B4B4"/>
<path d="M21.303 36.9407H18.1818V39.8211H21.303V36.9407Z" fill="#B4B4B4"/>
<path d="M24.3333 39.8211H21.212V36.9407H22.7726C23.657 36.9407 24.3333 37.5648 24.3333 38.3809V39.8211Z" fill="#B4B4B4"/>
<path d="M39.4847 39.8211H37.9241C37.0398 39.8211 36.3635 39.197 36.3635 38.3809C36.3635 37.5648 37.0398 36.9407 37.9241 36.9407H39.4847V39.8211Z" fill="#B4B4B4"/>
<path d="M42.5151 36.9407H39.3939V39.8211H42.5151V36.9407Z" fill="#B4B4B4"/>
<path d="M45.5454 39.8211H42.4242V36.9407H43.9848C44.8691 36.9407 45.5454 37.5648 45.5454 38.3809V39.8211Z" fill="#B4B4B4"/>
<path d="M50.0453 39.8211C49.161 39.8211 48.4847 39.197 48.4847 38.3809V36.9407H51.606V38.3809C51.606 39.197 50.9297 39.8211 50.0453 39.8211Z" fill="#B4B4B4"/>
<path d="M72.8181 36.9407H69.6969V39.8211H72.8181V36.9407Z" fill="#B4B4B4"/>
<path d="M75.8484 36.9407H72.7272V39.8211H75.8484V36.9407Z" fill="#B4B4B4"/>
<path d="M78.8788 36.9407H75.7576V39.8211H78.8788V36.9407Z" fill="#B4B4B4"/>
<path d="M83.3787 39.8211C84.2406 39.8211 84.9393 39.1763 84.9393 38.3809C84.9393 37.5855 84.2406 36.9407 83.3787 36.9407C82.5168 36.9407 81.8181 37.5855 81.8181 38.3809C81.8181 39.1763 82.5168 39.8211 83.3787 39.8211Z" fill="#B4B4B4"/>
<path d="M90.9999 39.8211H87.8787V38.3809C87.8787 37.5648 88.5549 36.9407 89.4393 36.9407C90.3236 36.9407 90.9999 37.5648 90.9999 38.3809V39.8211Z" fill="#B4B4B4"/>
<path d="M7.62115 42.6175C8.48305 42.6175 9.18176 41.9727 9.18176 41.1773C9.18176 40.3819 8.48305 39.7371 7.62115 39.7371C6.75925 39.7371 6.06055 40.3819 6.06055 41.1773C6.06055 41.9727 6.75925 42.6175 7.62115 42.6175Z" fill="#B4B4B4"/>
<path d="M15.2423 42.6175H13.6817C12.7974 42.6175 12.1211 41.9934 12.1211 41.1773C12.1211 40.3612 12.7974 39.7371 13.6817 39.7371H15.2423V42.6175Z" fill="#B4B4B4"/>
<path d="M18.2727 39.7371H15.1515V42.6175H18.2727V39.7371Z" fill="#B4B4B4"/>
<path d="M21.303 39.7371H18.1818V42.6175H21.303V39.7371Z" fill="#B4B4B4"/>
<path d="M24.3333 39.7371H21.212V42.6175H24.3333V39.7371Z" fill="#B4B4B4"/>
<path d="M25.8029 42.6175H24.2423V39.7371H25.8029C26.6873 39.7371 27.3635 40.3612 27.3635 41.1773C27.3635 41.9934 26.6873 42.6175 25.8029 42.6175Z" fill="#B4B4B4"/>
<path d="M31.8636 42.6175C32.7255 42.6175 33.4242 41.9727 33.4242 41.1773C33.4242 40.3819 32.7255 39.7371 31.8636 39.7371C31.0017 39.7371 30.303 40.3819 30.303 41.1773C30.303 41.9727 31.0017 42.6175 31.8636 42.6175Z" fill="#B4B4B4"/>
<path d="M43.9848 42.6175C43.1005 42.6175 42.4242 41.9934 42.4242 41.1773V39.7371H45.5454V41.1773C45.5454 41.9934 44.8691 42.6175 43.9848 42.6175Z" fill="#B4B4B4"/>
<path d="M57.6666 42.6175H56.106C55.2217 42.6175 54.5454 41.9934 54.5454 41.1773C54.5454 40.3612 55.2217 39.7371 56.106 39.7371H57.6666V42.6175Z" fill="#B4B4B4"/>
<path d="M60.6969 39.7371H57.5757V42.6175H60.6969V39.7371Z" fill="#B4B4B4"/>
<path d="M63.7272 42.6175H60.606V39.7371H62.1666C63.0509 39.7371 63.7272 40.3612 63.7272 41.1773V42.6175Z" fill="#B4B4B4"/>
<path d="M72.8181 39.7371H69.6969V42.6175H72.8181V39.7371Z" fill="#B4B4B4"/>
<path d="M77.3182 42.6175C76.4338 42.6175 75.7576 41.9934 75.7576 41.1773V39.7371H78.8788V41.1773C78.8788 41.9934 78.2025 42.6175 77.3182 42.6175Z" fill="#B4B4B4"/>
<path d="M87.9696 42.6175H86.409C85.5247 42.6175 84.8484 41.9934 84.8484 41.1773C84.8484 40.3612 85.5247 39.7371 86.409 39.7371H87.9696V42.6175Z" fill="#B4B4B4"/>
<path d="M90.9999 39.7371H87.8787V42.6175H90.9999V39.7371Z" fill="#B4B4B4"/>
<path d="M94.0303 42.6175H90.9091V39.7371H92.4697C93.354 39.7371 94.0303 40.3612 94.0303 41.1773V42.6175Z" fill="#B4B4B4"/>
<path d="M10.6514 45.4141C11.5133 45.4141 12.212 44.7693 12.212 43.9739C12.212 43.1785 11.5133 42.5337 10.6514 42.5337C9.78953 42.5337 9.09082 43.1785 9.09082 43.9739C9.09082 44.7693 9.78953 45.4141 10.6514 45.4141Z" fill="#B4B4B4"/>
<path d="M21.303 42.5337H18.1818V45.4141H21.303V42.5337Z" fill="#B4B4B4"/>
<path d="M24.3333 42.5337H21.212V45.4141H24.3333V42.5337Z" fill="#B4B4B4"/>
<path d="M28.8333 45.4141C29.6952 45.4141 30.3939 44.7693 30.3939 43.9739C30.3939 43.1785 29.6952 42.5337 28.8333 42.5337C27.9714 42.5337 27.2727 43.1785 27.2727 43.9739C27.2727 44.7693 27.9714 45.4141 28.8333 45.4141Z" fill="#B4B4B4"/>
<path d="M36.4545 45.4141H33.3333V43.9739C33.3333 43.1578 34.0095 42.5337 34.8939 42.5337H36.4545V45.4141Z" fill="#B4B4B4"/>
<path d="M39.4847 45.4141H36.3635V42.5337H37.9241C38.8085 42.5337 39.4847 43.1578 39.4847 43.9739V45.4141Z" fill="#B4B4B4"/>
<path d="M51.606 45.4141H48.4847V43.9739C48.4847 43.1578 49.161 42.5337 50.0453 42.5337C50.9297 42.5337 51.606 43.1578 51.606 43.9739V45.4141Z" fill="#B4B4B4"/>
<path d="M60.6969 42.5337H57.5757V45.4141H60.6969V42.5337Z" fill="#B4B4B4"/>
<path d="M63.7272 42.5337H60.606V45.4141H63.7272V42.5337Z" fill="#B4B4B4"/>
<path d="M66.7576 42.5337H63.6364V45.4141H66.7576V42.5337Z" fill="#B4B4B4"/>
<path d="M69.7878 42.5337H66.6666V45.4141H69.7878V42.5337Z" fill="#B4B4B4"/>
<path d="M72.8181 42.5337H69.6969V45.4141H72.8181V42.5337Z" fill="#B4B4B4"/>
<path d="M75.8484 45.4141H72.7272V42.5337H74.2878C75.1721 42.5337 75.8484 43.1578 75.8484 43.9739V45.4141Z" fill="#B4B4B4"/>
<path d="M81.9091 45.4141H80.3484C79.4641 45.4141 78.7878 44.79 78.7878 43.9739C78.7878 43.1578 79.4641 42.5337 80.3484 42.5337H81.9091V45.4141Z" fill="#B4B4B4"/>
<path d="M83.3787 45.4141H81.8181V42.5337H83.3787C84.2631 42.5337 84.9393 43.1578 84.9393 43.9739C84.9393 44.79 84.2631 45.4141 83.3787 45.4141Z" fill="#B4B4B4"/>
<path d="M90.9999 45.4141H89.4393C88.5549 45.4141 87.8787 44.79 87.8787 43.9739V42.5337H90.9999V45.4141Z" fill="#B4B4B4"/>
<path d="M92.4697 45.4141H90.9091V42.5337H94.0303V43.9739C94.0303 44.79 93.354 45.4141 92.4697 45.4141Z" fill="#B4B4B4"/>
<path d="M21.303 45.3303H18.1818V48.2108H21.303V45.3303Z" fill="#B4B4B4"/>
<path d="M24.3333 45.3303H21.212V48.2108H24.3333V45.3303Z" fill="#B4B4B4"/>
<path d="M25.8029 48.2108H24.2423V45.3303H25.8029C26.6873 45.3303 27.3635 45.9544 27.3635 46.7705C27.3635 47.5867 26.6873 48.2108 25.8029 48.2108Z" fill="#B4B4B4"/>
<path d="M33.4242 48.2108H31.8636C30.9792 48.2108 30.303 47.5867 30.303 46.7705C30.303 45.9544 30.9792 45.3303 31.8636 45.3303H33.4242V48.2108Z" fill="#B4B4B4"/>
<path d="M36.4545 45.3303H33.3333V48.2108H36.4545V45.3303Z" fill="#B4B4B4"/>
<path d="M39.4847 45.3303H36.3635V48.2108H39.4847V45.3303Z" fill="#B4B4B4"/>
<path d="M40.9545 48.2108H39.3939V45.3303H40.9545C41.8389 45.3303 42.5151 45.9544 42.5151 46.7705C42.5151 47.5867 41.8389 48.2108 40.9545 48.2108Z" fill="#B4B4B4"/>
<path d="M48.5757 48.2108H45.4545V46.7705C45.4545 45.9544 46.1307 45.3303 47.0151 45.3303H48.5757V48.2108Z" fill="#B4B4B4"/>
<path d="M51.606 45.3303H48.4847V48.2108H51.606V45.3303Z" fill="#B4B4B4"/>
<path d="M53.0757 48.2108H51.5151V45.3303H53.0757C53.9601 45.3303 54.6364 45.9544 54.6364 46.7705C54.6364 47.5867 53.9601 48.2108 53.0757 48.2108Z" fill="#B4B4B4"/>
<path d="M60.6969 45.3303H57.5757V48.2108H60.6969V45.3303Z" fill="#B4B4B4"/>
<path d="M75.8484 48.2108H74.2878C73.4034 48.2108 72.7272 47.5867 72.7272 46.7705V45.3303H75.8484V48.2108Z" fill="#B4B4B4"/>
<path d="M77.3182 48.2108H75.7576V45.3303H77.3182C78.2025 45.3303 78.8788 45.9544 78.8788 46.7705C78.8788 47.5867 78.2025 48.2108 77.3182 48.2108Z" fill="#B4B4B4"/>
<path d="M9.18176 51.0071H6.06055V49.5669C6.06055 48.7508 6.73681 48.1267 7.62115 48.1267H9.18176V51.0071Z" fill="#B4B4B4"/>
<path d="M10.6514 51.0071H9.09082V48.1267H10.6514C11.5358 48.1267 12.212 48.7508 12.212 49.5669C12.212 50.383 11.5358 51.0071 10.6514 51.0071Z" fill="#B4B4B4"/>
<path d="M21.303 48.1267H18.1818V51.0071H21.303V48.1267Z" fill="#B4B4B4"/>
<path d="M48.5757 48.1267H45.4545V51.0071H48.5757V48.1267Z" fill="#B4B4B4"/>
<path d="M60.6969 51.0071H59.1363C58.2519 51.0071 57.5757 50.383 57.5757 49.5669V48.1267H60.6969V51.0071Z" fill="#B4B4B4"/>
<path d="M62.1666 51.0071H60.606V48.1267H62.1666C63.0509 48.1267 63.7272 48.7508 63.7272 49.5669C63.7272 50.383 63.0509 51.0071 62.1666 51.0071Z" fill="#B4B4B4"/>
<path d="M81.9091 51.0071H80.3484C79.4641 51.0071 78.7878 50.383 78.7878 49.5669C78.7878 48.7508 79.4641 48.1267 80.3484 48.1267H81.9091V51.0071Z" fill="#B4B4B4"/>
<path d="M84.9393 51.0071H81.8181V48.1267H83.3787C84.2631 48.1267 84.9393 48.7508 84.9393 49.5669V51.0071Z" fill="#B4B4B4"/>
<path d="M92.4697 51.0071C93.3316 51.0071 94.0303 50.3623 94.0303 49.5669C94.0303 48.7715 93.3316 48.1267 92.4697 48.1267C91.6078 48.1267 90.9091 48.7715 90.9091 49.5669C90.9091 50.3623 91.6078 51.0071 92.4697 51.0071Z" fill="#B4B4B4"/>
<path d="M9.18176 50.9233H6.06055V53.8038H9.18176V50.9233Z" fill="#B4B4B4"/>
<path d="M15.2423 53.8038H12.1211V52.3636C12.1211 51.5474 12.7974 50.9233 13.6817 50.9233H15.2423V53.8038Z" fill="#B4B4B4"/>
<path d="M18.2727 50.9233H15.1515V53.8038H18.2727V50.9233Z" fill="#B4B4B4"/>
<path d="M21.303 50.9233H18.1818V53.8038H21.303V50.9233Z" fill="#B4B4B4"/>
<path d="M27.3635 53.8038H25.8029C24.9186 53.8038 24.2423 53.1797 24.2423 52.3636C24.2423 51.5474 24.9186 50.9233 25.8029 50.9233H27.3635V53.8038Z" fill="#B4B4B4"/>
<path d="M30.3939 53.8038H27.2727V50.9233H28.8333C29.7177 50.9233 30.3939 51.5474 30.3939 52.3636V53.8038Z" fill="#B4B4B4"/>
<path d="M36.4545 53.8038H33.3333V52.3636C33.3333 51.5474 34.0095 50.9233 34.8939 50.9233H36.4545V53.8038Z" fill="#B4B4B4"/>
<path d="M39.4847 50.9233H36.3635V53.8038H39.4847V50.9233Z" fill="#B4B4B4"/>
<path d="M42.5151 50.9233H39.3939V53.8038H42.5151V50.9233Z" fill="#B4B4B4"/>
<path d="M45.5454 50.9233H42.4242V53.8038H45.5454V50.9233Z" fill="#B4B4B4"/>
<path d="M48.5757 50.9233H45.4545V53.8038H48.5757V50.9233Z" fill="#B4B4B4"/>
<path d="M51.606 50.9233H48.4847V53.8038H51.606V50.9233Z" fill="#B4B4B4"/>
<path d="M54.6364 50.9233H51.5151V53.8038H54.6364V50.9233Z" fill="#B4B4B4"/>
<path d="M56.106 53.8038H54.5454V50.9233H56.106C56.9904 50.9233 57.6666 51.5474 57.6666 52.3636C57.6666 53.1797 56.9904 53.8038 56.106 53.8038Z" fill="#B4B4B4"/>
<path d="M72.8181 53.8038H69.6969V52.3636C69.6969 51.5474 70.3732 50.9233 71.2575 50.9233C72.1419 50.9233 72.8181 51.5474 72.8181 52.3636V53.8038Z" fill="#B4B4B4"/>
<path d="M84.9393 50.9233H81.8181V53.8038H84.9393V50.9233Z" fill="#B4B4B4"/>
<path d="M86.409 53.8038H84.8484V50.9233H86.409C87.2933 50.9233 87.9696 51.5474 87.9696 52.3636C87.9696 53.1797 87.2933 53.8038 86.409 53.8038Z" fill="#B4B4B4"/>
<path d="M9.18176 53.7197H6.06055V56.6002H9.18176V53.7197Z" fill="#B4B4B4"/>
<path d="M15.2423 53.7197H12.1211V56.6002H15.2423V53.7197Z" fill="#B4B4B4"/>
<path d="M18.2727 53.7197H15.1515V56.6002H18.2727V53.7197Z" fill="#B4B4B4"/>
<path d="M19.7424 56.6002H18.1818V53.7197H21.303V55.1599C21.303 55.9761 20.6267 56.6002 19.7424 56.6002Z" fill="#B4B4B4"/>
<path d="M30.3939 56.6002H28.8333C27.949 56.6002 27.2727 55.9761 27.2727 55.1599V53.7197H30.3939V56.6002Z" fill="#B4B4B4"/>
<path d="M33.4242 53.7197H30.303V56.6002H33.4242V53.7197Z" fill="#B4B4B4"/>
<path d="M36.4545 53.7197H33.3333V56.6002H36.4545V53.7197Z" fill="#B4B4B4"/>
<path d="M39.4847 53.7197H36.3635V56.6002H39.4847V53.7197Z" fill="#B4B4B4"/>
<path d="M42.5151 53.7197H39.3939V56.6002H42.5151V53.7197Z" fill="#B4B4B4"/>
<path d="M45.5454 53.7197H42.4242V56.6002H45.5454V53.7197Z" fill="#B4B4B4"/>
<path d="M54.6364 53.7197H51.5151V56.6002H54.6364V53.7197Z" fill="#B4B4B4"/>
<path d="M60.6969 56.6002H57.5757V55.1599C57.5757 54.3438 58.2519 53.7197 59.1363 53.7197H60.6969V56.6002Z" fill="#B4B4B4"/>
<path d="M62.1666 56.6002H60.606V53.7197H62.1666C63.0509 53.7197 63.7272 54.3438 63.7272 55.1599C63.7272 55.9761 63.0509 56.6002 62.1666 56.6002Z" fill="#B4B4B4"/>
<path d="M69.7878 56.6002H68.2272C67.3429 56.6002 66.6666 55.9761 66.6666 55.1599C66.6666 54.3438 67.3429 53.7197 68.2272 53.7197H69.7878V56.6002Z" fill="#B4B4B4"/>
<path d="M72.8181 53.7197H69.6969V56.6002H72.8181V53.7197Z" fill="#B4B4B4"/>
<path d="M75.8484 53.7197H72.7272V56.6002H75.8484V53.7197Z" fill="#B4B4B4"/>
<path d="M78.8788 53.7197H75.7576V56.6002H78.8788V53.7197Z" fill="#B4B4B4"/>
<path d="M81.9091 53.7197H78.7878V56.6002H81.9091V53.7197Z" fill="#B4B4B4"/>
<path d="M84.9393 53.7197H81.8181V56.6002H84.9393V53.7197Z" fill="#B4B4B4"/>
<path d="M90.9999 56.6002H89.4393C88.5549 56.6002 87.8787 55.9761 87.8787 55.1599C87.8787 54.3438 88.5549 53.7197 89.4393 53.7197H90.9999V56.6002Z" fill="#B4B4B4"/>
<path d="M92.4697 56.6002H90.9091V53.7197H92.4697C93.354 53.7197 94.0303 54.3438 94.0303 55.1599C94.0303 55.9761 93.354 56.6002 92.4697 56.6002Z" fill="#B4B4B4"/>
<path d="M9.18176 56.5164H6.06055V59.3968H9.18176V56.5164Z" fill="#B4B4B4"/>
<path d="M13.6817 59.3968C12.7974 59.3968 12.1211 58.7727 12.1211 57.9566V56.5164H15.2423V57.9566C15.2423 58.7727 14.566 59.3968 13.6817 59.3968Z" fill="#B4B4B4"/>
<path d="M24.3333 59.3968H21.212V57.9566C21.212 57.1405 21.8883 56.5164 22.7726 56.5164H24.3333V59.3968Z" fill="#B4B4B4"/>
<path d="M25.8029 59.3968H24.2423V56.5164H25.8029C26.6873 56.5164 27.3635 57.1405 27.3635 57.9566C27.3635 58.7727 26.6873 59.3968 25.8029 59.3968Z" fill="#B4B4B4"/>
<path d="M33.4242 56.5164H30.303V59.3968H33.4242V56.5164Z" fill="#B4B4B4"/>
<path d="M45.5454 56.5164H42.4242V59.3968H45.5454V56.5164Z" fill="#B4B4B4"/>
<path d="M48.5757 56.5164H45.4545V59.3968H48.5757V56.5164Z" fill="#B4B4B4"/>
<path d="M51.606 56.5164H48.4847V59.3968H51.606V56.5164Z" fill="#B4B4B4"/>
<path d="M54.6364 56.5164H51.5151V59.3968H54.6364V56.5164Z" fill="#B4B4B4"/>
<path d="M57.6666 56.5164H54.5454V59.3968H57.6666V56.5164Z" fill="#B4B4B4"/>
<path d="M59.1363 59.3968H57.5757V56.5164H60.6969V57.9566C60.6969 58.7727 60.0206 59.3968 59.1363 59.3968Z" fill="#B4B4B4"/>
<path d="M66.7576 59.3968H63.6364V57.9566C63.6364 57.1405 64.3126 56.5164 65.197 56.5164C66.0813 56.5164 66.7576 57.1405 66.7576 57.9566V59.3968Z" fill="#B4B4B4"/>
<path d="M75.8484 56.5164H72.7272V59.3968H75.8484V56.5164Z" fill="#B4B4B4"/>
<path d="M77.3182 59.3968H75.7576V56.5164H78.8788V57.9566C78.8788 58.7727 78.2025 59.3968 77.3182 59.3968Z" fill="#B4B4B4"/>
<path d="M83.3787 59.3968C82.4944 59.3968 81.8181 58.7727 81.8181 57.9566V56.5164H84.9393V57.9566C84.9393 58.7727 84.2631 59.3968 83.3787 59.3968Z" fill="#B4B4B4"/>
<path d="M9.18176 59.313H6.06055V62.1934H9.18176V59.313Z" fill="#B4B4B4"/>
<path d="M24.3333 59.313H21.212V62.1934H24.3333V59.313Z" fill="#B4B4B4"/>
<path d="M30.3939 62.1934H28.8333C27.949 62.1934 27.2727 61.5693 27.2727 60.7532C27.2727 59.9371 27.949 59.313 28.8333 59.313H30.3939V62.1934Z" fill="#B4B4B4"/>
<path d="M33.4242 59.313H30.303V62.1934H33.4242V59.313Z" fill="#B4B4B4"/>
<path d="M34.8939 62.1934H33.3333V59.313H34.8939C35.7782 59.313 36.4545 59.9371 36.4545 60.7532C36.4545 61.5693 35.7782 62.1934 34.8939 62.1934Z" fill="#B4B4B4"/>
<path d="M45.5454 59.313H42.4242V62.1934H45.5454V59.313Z" fill="#B4B4B4"/>
<path d="M54.6364 59.313H51.5151V62.1934H54.6364V59.313Z" fill="#B4B4B4"/>
<path d="M63.7272 62.1934H62.1666C61.2822 62.1934 60.606 61.5693 60.606 60.7532C60.606 59.9371 61.2822 59.313 62.1666 59.313H63.7272V62.1934Z" fill="#B4B4B4"/>
<path d="M66.7576 59.313H63.6364V62.1934H66.7576V59.313Z" fill="#B4B4B4"/>
<path d="M69.7878 62.1934H66.6666V59.313H68.2272C69.1116 59.313 69.7878 59.9371 69.7878 60.7532V62.1934Z" fill="#B4B4B4"/>
<path d="M75.8484 59.313H72.7272V62.1934H75.8484V59.313Z" fill="#B4B4B4"/>
<path d="M81.9091 62.1934H78.7878V60.7532C78.7878 59.9371 79.4641 59.313 80.3484 59.313C81.2328 59.313 81.9091 59.9371 81.9091 60.7532V62.1934Z" fill="#B4B4B4"/>
<path d="M90.9999 62.1934H87.8787V60.7532C87.8787 59.9371 88.5549 59.313 89.4393 59.313C90.3236 59.313 90.9999 59.9371 90.9999 60.7532V62.1934Z" fill="#B4B4B4"/>
<path d="M7.62115 64.9898C6.73681 64.9898 6.06055 64.3657 6.06055 63.5496V62.1094H9.18176V63.5496C9.18176 64.3657 8.5055 64.9898 7.62115 64.9898Z" fill="#B4B4B4"/>
<path d="M16.7121 64.9898C17.574 64.9898 18.2727 64.345 18.2727 63.5496C18.2727 62.7542 17.574 62.1094 16.7121 62.1094C15.8502 62.1094 15.1515 62.7542 15.1515 63.5496C15.1515 64.345 15.8502 64.9898 16.7121 64.9898Z" fill="#B4B4B4"/>
<path d="M24.3333 64.9898H22.7726C21.8883 64.9898 21.212 64.3657 21.212 63.5496V62.1094H24.3333V64.9898Z" fill="#B4B4B4"/>
<path d="M25.8029 64.9898H24.2423V62.1094H25.8029C26.6873 62.1094 27.3635 62.7335 27.3635 63.5496C27.3635 64.3657 26.6873 64.9898 25.8029 64.9898Z" fill="#B4B4B4"/>
<path d="M33.4242 62.1094H30.303V64.9898H33.4242V62.1094Z" fill="#B4B4B4"/>
<path d="M43.9848 64.9898C43.1005 64.9898 42.4242 64.3657 42.4242 63.5496V62.1094H45.5454V63.5496C45.5454 64.3657 44.8691 64.9898 43.9848 64.9898Z" fill="#B4B4B4"/>
<path d="M53.0757 64.9898C52.1914 64.9898 51.5151 64.3657 51.5151 63.5496V62.1094H54.6364V63.5496C54.6364 64.3657 53.9601 64.9898 53.0757 64.9898Z" fill="#B4B4B4"/>
<path d="M59.1363 64.9898C59.9982 64.9898 60.6969 64.345 60.6969 63.5496C60.6969 62.7542 59.9982 62.1094 59.1363 62.1094C58.2744 62.1094 57.5757 62.7542 57.5757 63.5496C57.5757 64.345 58.2744 64.9898 59.1363 64.9898Z" fill="#B4B4B4"/>
<path d="M66.7576 62.1094H63.6364V64.9898H66.7576V62.1094Z" fill="#B4B4B4"/>
<path d="M69.7878 62.1094H66.6666V64.9898H69.7878V62.1094Z" fill="#B4B4B4"/>
<path d="M72.8181 62.1094H69.6969V64.9898H72.8181V62.1094Z" fill="#B4B4B4"/>
<path d="M75.8484 62.1094H72.7272V64.9898H75.8484V62.1094Z" fill="#B4B4B4"/>
<path d="M78.8788 62.1094H75.7576V64.9898H78.8788V62.1094Z" fill="#B4B4B4"/>
<path d="M81.9091 62.1094H78.7878V64.9898H81.9091V62.1094Z" fill="#B4B4B4"/>
<path d="M87.9696 64.9898H86.409C85.5247 64.9898 84.8484 64.3657 84.8484 63.5496C84.8484 62.7335 85.5247 62.1094 86.409 62.1094H87.9696V64.9898Z" fill="#B4B4B4"/>
<path d="M90.9999 62.1094H87.8787V64.9898H90.9999V62.1094Z" fill="#B4B4B4"/>
<path d="M94.0303 64.9898H90.9091V62.1094H92.4697C93.354 62.1094 94.0303 62.7335 94.0303 63.5496V64.9898Z" fill="#B4B4B4"/>
<path d="M33.4242 64.906H30.303V67.7864H33.4242V64.906Z" fill="#B4B4B4"/>
<path d="M36.4545 67.7864H33.3333V64.906H34.8939C35.7782 64.906 36.4545 65.5301 36.4545 66.3462V67.7864Z" fill="#B4B4B4"/>
<path d="M51.606 67.7864H48.4847V66.3462C48.4847 65.5301 49.161 64.906 50.0453 64.906C50.9297 64.906 51.606 65.5301 51.606 66.3462V67.7864Z" fill="#B4B4B4"/>
<path d="M57.6666 67.7864H54.5454V66.3462C54.5454 65.5301 55.2217 64.906 56.106 64.906C56.9904 64.906 57.6666 65.5301 57.6666 66.3462V67.7864Z" fill="#B4B4B4"/>
<path d="M63.7272 67.7864H60.606V66.3462C60.606 65.5301 61.2822 64.906 62.1666 64.906H63.7272V67.7864Z" fill="#B4B4B4"/>
<path d="M66.7576 64.906H63.6364V67.7864H66.7576V64.906Z" fill="#B4B4B4"/>
<path d="M69.7878 64.906H66.6666V67.7864H69.7878V64.906Z" fill="#B4B4B4"/>
<path d="M81.9091 64.906H78.7878V67.7864H81.9091V64.906Z" fill="#B4B4B4"/>
<path d="M83.3787 67.7864H81.8181V64.906H83.3787C84.2631 64.906 84.9393 65.5301 84.9393 66.3462C84.9393 67.1623 84.2631 67.7864 83.3787 67.7864Z" fill="#B4B4B4"/>
<path d="M90.9999 67.7864H89.4393C88.5549 67.7864 87.8787 67.1623 87.8787 66.3462V64.906H90.9999V67.7864Z" fill="#B4B4B4"/>
<path d="M92.4697 67.7864H90.9091V64.906H94.0303V66.3462C94.0303 67.1623 93.354 67.7864 92.4697 67.7864Z" fill="#B4B4B4"/>
<path d="M33.4242 67.7026H30.303V70.5831H33.4242V67.7026Z" fill="#B4B4B4"/>
<path d="M36.4545 67.7026H33.3333V70.5831H36.4545V67.7026Z" fill="#B4B4B4"/>
<path d="M37.9241 70.5831H36.3635V67.7026H37.9241C38.8085 67.7026 39.4847 68.3267 39.4847 69.1429C39.4847 69.959 38.8085 70.5831 37.9241 70.5831Z" fill="#B4B4B4"/>
<path d="M45.5454 70.5831H42.4242V69.1429C42.4242 68.3267 43.1005 67.7026 43.9848 67.7026C44.8691 67.7026 45.5454 68.3267 45.5454 69.1429V70.5831Z" fill="#B4B4B4"/>
<path d="M51.606 70.5831H50.0453C49.161 70.5831 48.4847 69.959 48.4847 69.1429V67.7026H51.606V70.5831Z" fill="#B4B4B4"/>
<path d="M54.6364 67.7026H51.5151V70.5831H54.6364V67.7026Z" fill="#B4B4B4"/>
<path d="M57.6666 67.7026H54.5454V70.5831H57.6666V67.7026Z" fill="#B4B4B4"/>
<path d="M63.7272 70.5831H62.1666C61.2822 70.5831 60.606 69.959 60.606 69.1429V67.7026H63.7272V70.5831Z" fill="#B4B4B4"/>
<path d="M66.7576 67.7026H63.6364V70.5831H66.7576V67.7026Z" fill="#B4B4B4"/>
<path d="M69.7878 67.7026H66.6666V70.5831H69.7878V67.7026Z" fill="#B4B4B4"/>
<path d="M74.2878 70.5831C75.1497 70.5831 75.8484 69.9383 75.8484 69.1429C75.8484 68.3474 75.1497 67.7026 74.2878 67.7026C73.4259 67.7026 72.7272 68.3474 72.7272 69.1429C72.7272 69.9383 73.4259 70.5831 74.2878 70.5831Z" fill="#B4B4B4"/>
<path d="M81.9091 67.7026H78.7878V70.5831H81.9091V67.7026Z" fill="#B4B4B4"/>
<path d="M33.4242 70.499H30.303V73.3795H33.4242V70.499Z" fill="#B4B4B4"/>
<path d="M34.8939 73.3795H33.3333V70.499H36.4545V71.9392C36.4545 72.7554 35.7782 73.3795 34.8939 73.3795Z" fill="#B4B4B4"/>
<path d="M43.9848 73.3795C43.1005 73.3795 42.4242 72.7554 42.4242 71.9392V70.499H45.5454V71.9392C45.5454 72.7554 44.8691 73.3795 43.9848 73.3795Z" fill="#B4B4B4"/>
<path d="M56.106 73.3795C55.2217 73.3795 54.5454 72.7554 54.5454 71.9392V70.499H57.6666V71.9392C57.6666 72.7554 56.9904 73.3795 56.106 73.3795Z" fill="#B4B4B4"/>
<path d="M66.7576 73.3795H65.197C64.3126 73.3795 63.6364 72.7554 63.6364 71.9392V70.499H66.7576V73.3795Z" fill="#B4B4B4"/>
<path d="M69.7878 70.499H66.6666V73.3795H69.7878V70.499Z" fill="#B4B4B4"/>
<path d="M81.9091 70.499H78.7878V73.3795H81.9091V70.499Z" fill="#B4B4B4"/>
<path d="M84.9393 73.3795H81.8181V70.499H83.3787C84.2631 70.499 84.9393 71.1231 84.9393 71.9392V73.3795Z" fill="#B4B4B4"/>
<path d="M94.0303 73.3795H90.9091V71.9392C90.9091 71.1231 91.5853 70.499 92.4697 70.499C93.354 70.499 94.0303 71.1231 94.0303 71.9392V73.3795Z" fill="#B4B4B4"/>
<path d="M33.4242 73.2957H30.303V76.1761H33.4242V73.2957Z" fill="#B4B4B4"/>
<path d="M39.4847 76.1761H36.3635V74.7359C36.3635 73.9198 37.0398 73.2957 37.9241 73.2957C38.8085 73.2957 39.4847 73.9198 39.4847 74.7359V76.1761Z" fill="#B4B4B4"/>
<path d="M47.0151 76.1761C47.877 76.1761 48.5757 75.5313 48.5757 74.7359C48.5757 73.9405 47.877 73.2957 47.0151 73.2957C46.1532 73.2957 45.4545 73.9405 45.4545 74.7359C45.4545 75.5313 46.1532 76.1761 47.0151 76.1761Z" fill="#B4B4B4"/>
<path d="M62.1666 76.1761C63.0285 76.1761 63.7272 75.5313 63.7272 74.7359C63.7272 73.9405 63.0285 73.2957 62.1666 73.2957C61.3047 73.2957 60.606 73.9405 60.606 74.7359C60.606 75.5313 61.3047 76.1761 62.1666 76.1761Z" fill="#B4B4B4"/>
<path d="M69.7878 73.2957H66.6666V76.1761H69.7878V73.2957Z" fill="#B4B4B4"/>
<path d="M72.8181 73.2957H69.6969V76.1761H72.8181V73.2957Z" fill="#B4B4B4"/>
<path d="M75.8484 73.2957H72.7272V76.1761H75.8484V73.2957Z" fill="#B4B4B4"/>
<path d="M78.8788 73.2957H75.7576V76.1761H78.8788V73.2957Z" fill="#B4B4B4"/>
<path d="M81.9091 73.2957H78.7878V76.1761H81.9091V73.2957Z" fill="#B4B4B4"/>
<path d="M84.9393 73.2957H81.8181V76.1761H84.9393V73.2957Z" fill="#B4B4B4"/>
<path d="M87.9696 76.1761H84.8484V73.2957H86.409C87.2933 73.2957 87.9696 73.9198 87.9696 74.7359V76.1761Z" fill="#B4B4B4"/>
<path d="M92.4697 76.1761C91.5853 76.1761 90.9091 75.552 90.9091 74.7359V73.2957H94.0303V74.7359C94.0303 75.552 93.354 76.1761 92.4697 76.1761Z" fill="#B4B4B4"/>
<path d="M33.4242 76.092H30.303V78.9725H33.4242V76.092Z" fill="#B4B4B4"/>
<path d="M37.9241 78.9725C37.0398 78.9725 36.3635 78.3484 36.3635 77.5323V76.092H39.4847V77.5323C39.4847 78.3484 38.8085 78.9725 37.9241 78.9725Z" fill="#B4B4B4"/>
<path d="M45.5454 78.9725H42.4242V77.5323C42.4242 76.7161 43.1005 76.092 43.9848 76.092C44.8691 76.092 45.5454 76.7161 45.5454 77.5323V78.9725Z" fill="#B4B4B4"/>
<path d="M54.6364 78.9725H53.0757C52.1914 78.9725 51.5151 78.3484 51.5151 77.5323C51.5151 76.7161 52.1914 76.092 53.0757 76.092H54.6364V78.9725Z" fill="#B4B4B4"/>
<path d="M56.106 78.9725H54.5454V76.092H56.106C56.9904 76.092 57.6666 76.7161 57.6666 77.5323C57.6666 78.3484 56.9904 78.9725 56.106 78.9725Z" fill="#B4B4B4"/>
<path d="M66.7576 78.9725H63.6364V77.5323C63.6364 76.7161 64.3126 76.092 65.197 76.092H66.7576V78.9725Z" fill="#B4B4B4"/>
<path d="M69.7878 76.092H66.6666V78.9725H69.7878V76.092Z" fill="#B4B4B4"/>
<path d="M72.8181 76.092H69.6969V78.9725H72.8181V76.092Z" fill="#B4B4B4"/>
<path d="M78.8788 76.092H75.7576V78.9725H78.8788V76.092Z" fill="#B4B4B4"/>
<path d="M84.9393 78.9725H83.3787C82.4944 78.9725 81.8181 78.3484 81.8181 77.5323V76.092H84.9393V78.9725Z" fill="#B4B4B4"/>
<path d="M87.9696 76.092H84.8484V78.9725H87.9696V76.092Z" fill="#B4B4B4"/>
<path d="M33.4242 78.8887H30.303V81.7691H33.4242V78.8887Z" fill="#B4B4B4"/>
<path d="M45.5454 78.8887H42.4242V81.7691H45.5454V78.8887Z" fill="#B4B4B4"/>
<path d="M51.606 81.7691H48.4847V80.3289C48.4847 79.5128 49.161 78.8887 50.0453 78.8887C50.9297 78.8887 51.606 79.5128 51.606 80.3289V81.7691Z" fill="#B4B4B4"/>
<path d="M59.1363 81.7691C59.9982 81.7691 60.6969 81.1243 60.6969 80.3289C60.6969 79.5335 59.9982 78.8887 59.1363 78.8887C58.2744 78.8887 57.5757 79.5335 57.5757 80.3289C57.5757 81.1243 58.2744 81.7691 59.1363 81.7691Z" fill="#B4B4B4"/>
<path d="M66.7576 81.7691H65.197C64.3126 81.7691 63.6364 81.145 63.6364 80.3289V78.8887H66.7576V81.7691Z" fill="#B4B4B4"/>
<path d="M69.7878 78.8887H66.6666V81.7691H69.7878V78.8887Z" fill="#B4B4B4"/>
<path d="M72.8181 78.8887H69.6969V81.7691H72.8181V78.8887Z" fill="#B4B4B4"/>
<path d="M75.8484 78.8887H72.7272V81.7691H75.8484V78.8887Z" fill="#B4B4B4"/>
<path d="M78.8788 78.8887H75.7576V81.7691H78.8788V78.8887Z" fill="#B4B4B4"/>
<path d="M81.9091 81.7691H78.7878V78.8887H80.3484C81.2328 78.8887 81.9091 79.5128 81.9091 80.3289V81.7691Z" fill="#B4B4B4"/>
<path d="M87.9696 81.7691H86.409C85.5247 81.7691 84.8484 81.145 84.8484 80.3289V78.8887H87.9696V81.7691Z" fill="#B4B4B4"/>
<path d="M90.9999 81.7691H87.8787V78.8887H89.4393C90.3236 78.8887 90.9999 79.5128 90.9999 80.3289V81.7691Z" fill="#B4B4B4"/>
<path d="M31.8636 84.5657C30.9792 84.5657 30.303 83.9416 30.303 83.1255V81.6853H33.4242V83.1255C33.4242 83.9416 32.7479 84.5657 31.8636 84.5657Z" fill="#B4B4B4"/>
<path d="M42.5151 84.5657H39.3939V83.1255C39.3939 82.3094 40.0702 81.6853 40.9545 81.6853H42.5151V84.5657Z" fill="#B4B4B4"/>
<path d="M43.9848 84.5657H42.4242V81.6853H45.5454V83.1255C45.5454 83.9416 44.8691 84.5657 43.9848 84.5657Z" fill="#B4B4B4"/>
<path d="M51.606 81.6853H48.4847V84.5657H51.606V81.6853Z" fill="#B4B4B4"/>
<path d="M56.106 84.5657C56.9679 84.5657 57.6666 83.9209 57.6666 83.1255C57.6666 82.3301 56.9679 81.6853 56.106 81.6853C55.2441 81.6853 54.5454 82.3301 54.5454 83.1255C54.5454 83.9209 55.2441 84.5657 56.106 84.5657Z" fill="#B4B4B4"/>
<path d="M75.8484 81.6853H72.7272V84.5657H75.8484V81.6853Z" fill="#B4B4B4"/>
<path d="M81.9091 81.6853H78.7878V84.5657H81.9091V81.6853Z" fill="#B4B4B4"/>
<path d="M83.3787 84.5657H81.8181V81.6853H83.3787C84.2631 81.6853 84.9393 82.3094 84.9393 83.1255C84.9393 83.9416 84.2631 84.5657 83.3787 84.5657Z" fill="#B4B4B4"/>
<path d="M89.4393 84.5657C88.5549 84.5657 87.8787 83.9416 87.8787 83.1255V81.6853H90.9999V83.1255C90.9999 83.9416 90.3236 84.5657 89.4393 84.5657Z" fill="#B4B4B4"/>
<path d="M39.4847 87.3621H37.9241C37.0398 87.3621 36.3635 86.738 36.3635 85.9219C36.3635 85.1058 37.0398 84.4817 37.9241 84.4817H39.4847V87.3621Z" fill="#B4B4B4"/>
<path d="M40.9545 87.3621H39.3939V84.4817H42.5151V85.9219C42.5151 86.738 41.8389 87.3621 40.9545 87.3621Z" fill="#B4B4B4"/>
<path d="M50.0453 87.3621C49.161 87.3621 48.4847 86.738 48.4847 85.9219V84.4817H51.606V85.9219C51.606 86.738 50.9297 87.3621 50.0453 87.3621Z" fill="#B4B4B4"/>
<path d="M59.1363 87.3621C59.9982 87.3621 60.6969 86.7173 60.6969 85.9219C60.6969 85.1265 59.9982 84.4817 59.1363 84.4817C58.2744 84.4817 57.5757 85.1265 57.5757 85.9219C57.5757 86.7173 58.2744 87.3621 59.1363 87.3621Z" fill="#B4B4B4"/>
<path d="M74.2878 87.3621C73.4034 87.3621 72.7272 86.738 72.7272 85.9219V84.4817H75.8484V85.9219C75.8484 86.738 75.1721 87.3621 74.2878 87.3621Z" fill="#B4B4B4"/>
<path d="M80.3484 87.3621C79.4641 87.3621 78.7878 86.738 78.7878 85.9219V84.4817H81.9091V85.9219C81.9091 86.738 81.2328 87.3621 80.3484 87.3621Z" fill="#B4B4B4"/>
<path d="M86.409 87.3621C87.2709 87.3621 87.9696 86.7173 87.9696 85.9219C87.9696 85.1265 87.2709 84.4817 86.409 84.4817C85.5471 84.4817 84.8484 85.1265 84.8484 85.9219C84.8484 86.7173 85.5471 87.3621 86.409 87.3621Z" fill="#B4B4B4"/>
<path d="M12.8787 25.7545H20.606C24.2424 25.7545 27.2727 22.9579 27.2727 19.6021V12.4709C27.2727 8.97525 24.2424 6.17871 20.4545 6.17871H12.7272C9.09086 6.17871 6.06055 8.97525 6.06055 12.3311V19.4623C6.06055 22.9579 9.09086 25.7545 12.8787 25.7545ZM24.2424 12.8904V19.0428C24.2424 21.1402 22.2727 22.9579 20 22.9579H13.3333C10.909 22.9579 9.09086 21.28 9.09086 19.0428V12.8904C9.09086 10.793 11.0606 8.97525 13.3333 8.97525H20C22.4242 8.97525 24.2424 10.6532 24.2424 12.8904Z" fill="#B4B4B4"/>
<path d="M79.5454 25.7545H87.2727C90.909 25.7545 93.9393 22.9579 93.9393 19.6021V12.4709C93.9393 8.97525 90.909 6.17871 87.1211 6.17871H79.3939C75.7575 6.17871 72.7272 8.97525 72.7272 12.3311V19.4623C72.7272 22.9579 75.7575 25.7545 79.5454 25.7545ZM90.909 12.8904V19.0428C90.909 21.1402 88.9393 22.9579 86.6666 22.9579H79.9999C77.5757 22.9579 75.7575 21.28 75.7575 19.0428V12.8904C75.7575 10.793 77.7272 8.97525 79.9999 8.97525H86.6666C89.0908 8.97525 90.909 10.6532 90.909 12.8904Z" fill="#B4B4B4"/>
<path d="M12.8787 87.2784H20.606C24.2424 87.2784 27.2727 84.4819 27.2727 81.126V73.9948C27.2727 70.4992 24.2424 67.7026 20.4545 67.7026H12.7272C9.09086 67.7026 6.06055 70.4992 6.06055 73.855V80.9862C6.06055 84.4819 9.09086 87.2784 12.8787 87.2784ZM24.2424 74.4143V80.5667C24.2424 82.6641 22.2727 84.4819 20 84.4819H13.3333C10.909 84.4819 9.09086 82.8039 9.09086 80.5667V74.4143C9.09086 72.3169 11.0606 70.4992 13.3333 70.4992H20C22.4242 70.4992 24.2424 72.1771 24.2424 74.4143Z" fill="#B4B4B4"/>
<path d="M21.212 14.1488V17.9241C21.212 19.0427 19.9999 20.1613 18.6363 20.1613H14.6969C13.1817 20.1613 12.1211 19.1826 12.1211 17.7843V14.1488C12.1211 12.8903 13.3332 11.7717 14.6969 11.7717H18.7878C20.1514 11.7717 21.212 12.7505 21.212 14.1488Z" fill="#B4B4B4"/>
<path d="M87.8788 14.1488V17.9241C87.8788 19.0427 86.6667 20.1613 85.303 20.1613H81.3636C79.8485 20.1613 78.7878 19.1826 78.7878 17.7843V14.1488C78.7878 12.8903 80 11.7717 81.3636 11.7717H85.4545C86.8182 11.7717 87.8788 12.7505 87.8788 14.1488Z" fill="#B4B4B4"/>
<path d="M21.212 75.6727V79.448C21.212 80.5667 19.9999 81.6853 18.6363 81.6853H14.6969C13.1817 81.6853 12.1211 80.7065 12.1211 79.3082V75.6727C12.1211 74.4143 13.3332 73.2957 14.6969 73.2957H18.7878C20.1514 73.2957 21.212 74.2744 21.212 75.6727Z" fill="#B4B4B4"/>
</svg>
