<svg width="35" height="33" viewBox="0 0 35 33" fill="none" xmlns="http://www.w3.org/2000/svg">
<path fill-rule="evenodd" clip-rule="evenodd" d="M35 16.2528C35 25.1722 27.165 32.4028 17.5 32.4028C7.83504 32.4028 0 25.1722 0 16.2528C0 7.33341 7.83504 0.102783 17.5 0.102783C27.165 0.102783 35 7.33341 35 16.2528ZM11.7188 14.7734C9.96574 15.4797 8.16455 16.2055 6.51747 17.0428C5.65744 17.6239 6.80049 18.035 7.87289 18.4206C8.04336 18.4819 8.21202 18.5425 8.37061 18.6031C8.50259 18.6406 8.63676 18.68 8.77275 18.72C9.96545 19.0706 11.2953 19.4617 12.4532 18.8735C14.3553 17.8651 16.1503 16.6993 17.944 15.5344C18.5316 15.1528 19.1191 14.7712 19.7102 14.3953C19.7379 14.379 19.7691 14.3603 19.8033 14.3399C20.3068 14.0386 21.4393 13.3612 21.0203 14.2947C20.0298 15.2943 18.9688 16.1792 17.9021 17.069C17.1832 17.6687 16.4616 18.2705 15.7572 18.9111C15.1438 19.3711 14.5067 20.2962 15.1936 20.9404C16.7759 21.9626 18.3828 22.9599 19.9888 23.9568C20.5114 24.2812 21.034 24.6055 21.5555 24.9307C22.4394 25.5819 23.8208 25.0551 24.0151 24.0374C24.1015 23.5693 24.1883 23.1012 24.2751 22.633C24.7546 20.0459 25.2342 17.4578 25.6579 14.8622C25.7155 14.455 25.7808 14.0479 25.8461 13.6406C26.0044 12.6534 26.1629 11.6649 26.2124 10.6724C26.0848 9.68182 24.7834 9.89964 24.0592 10.1224C20.3367 11.4296 16.6513 12.8337 12.9806 14.2626C12.5647 14.4325 12.1432 14.6024 11.7188 14.7734Z" fill="#B4B4B4"/>
</svg>
