<svg width="35" height="33" viewBox="0 0 35 33" fill="none" xmlns="http://www.w3.org/2000/svg">
<path fill-rule="evenodd" clip-rule="evenodd" d="M0 16.2528C0 7.33341 7.83504 0.102783 17.5 0.102783C27.165 0.102783 35 7.33341 35 16.2528C35 25.1722 27.165 32.4028 17.5 32.4028C7.83504 32.4028 0 25.1722 0 16.2528ZM18.4155 21.5527C18.4155 21.5527 18.7523 21.5188 18.9249 21.3509C19.0828 21.1971 19.0773 20.9068 19.0773 20.9068C19.0773 20.9068 19.0563 19.5513 19.7512 19.3511C20.4359 19.1543 21.3151 20.662 22.2482 21.2418C22.953 21.6801 23.488 21.5842 23.488 21.5842L25.9814 21.5527C25.9814 21.5527 27.2851 21.4799 26.667 20.5512C26.6159 20.4751 26.3064 19.8639 24.8137 18.6084C23.2497 17.2943 23.4597 17.5068 25.3423 15.2332C26.489 13.8487 26.9473 13.0035 26.8039 12.6421C26.668 12.2964 25.8243 12.3882 25.8243 12.3882L23.0178 12.4039C23.0178 12.4039 22.8096 12.3783 22.6554 12.4618C22.5047 12.5437 22.407 12.7347 22.407 12.7347C22.407 12.7347 21.9633 13.8057 21.3708 14.7171C20.1209 16.6392 19.6215 16.7409 19.417 16.6219C18.9413 16.3432 19.06 15.5037 19.06 14.9074C19.06 13.044 19.3723 12.2674 18.4529 12.0664C18.1479 11.9995 17.9234 11.9556 17.1427 11.9482C16.1412 11.9391 15.2939 11.9515 14.8137 12.1641C14.4942 12.3055 14.2476 12.6214 14.3983 12.6396C14.5836 12.6619 15.0036 12.7422 15.2264 13.0167C15.514 13.3716 15.5039 14.1671 15.5039 14.1671C15.5039 14.1671 15.6692 16.3605 15.1177 16.6326C14.7397 16.8195 14.2212 16.4382 13.1064 14.694C12.5358 13.8008 12.1049 12.8133 12.1049 12.8133C12.1049 12.8133 12.0218 12.6289 11.8729 12.5296C11.6931 12.4097 11.442 12.3725 11.442 12.3725L8.77523 12.3882C8.77523 12.3882 8.37441 12.3981 8.22741 12.556C8.09689 12.6958 8.21734 12.9861 8.21734 12.9861C8.21734 12.9861 10.3054 17.4117 12.67 19.6423C14.8383 21.6867 17.2998 21.5527 17.2998 21.5527H18.4155Z" fill="#B4B4B4"/>
</svg>
